<svg width="294" height="19" viewBox="0 0 294 19" fill="none" xmlns="http://www.w3.org/2000/svg" id="content">
<path fill-rule="evenodd" clip-rule="evenodd" d="M7.11302 5.40273C6.36213 5.0776 5.5236 4.88922 4.68594 4.88922C3.8646 4.88922 2.80355 5.24877 2.80355 6.54932C2.80355 8.62056 8.03746 7.74836 8.03746 11.7541C8.03746 14.3741 5.96864 15.3667 3.55788 15.3667C2.25885 15.3667 1.67721 15.1956 0.496747 14.904L0.719265 12.7467C1.53975 13.1923 2.47965 13.4839 3.42128 13.4839C4.32768 13.4839 5.54165 13.0202 5.54165 11.9425C5.54165 9.66565 0.308594 10.6067 0.308594 6.65167C0.308594 3.98176 2.37742 3.00635 4.4806 3.00635C5.50728 3.00635 6.46437 3.14311 7.3364 3.43384L7.11302 5.40273Z" fill="#FEFEFE"/>
<path fill-rule="evenodd" clip-rule="evenodd" d="M11.627 10.7277C11.627 11.9766 12.1219 13.586 13.6443 13.586C15.1495 13.586 15.5774 11.9422 15.5774 10.7277C15.5774 9.54586 15.1658 7.91931 13.6795 7.91931C12.2086 7.91931 11.627 9.49425 11.627 10.7277ZM9.31934 6.34436H11.5076V7.59417H11.5411C12.0549 6.73832 12.9269 6.13965 14.2775 6.13965C16.9786 6.13965 17.9709 8.29605 17.9709 10.7277C17.9709 13.1413 16.9786 15.3674 14.2259 15.3674C13.2516 15.3674 12.4475 15.1265 11.645 14.1503H11.6098V18.7555H9.31934V6.34436Z" fill="#FEFEFE"/>
<path fill-rule="evenodd" clip-rule="evenodd" d="M22.3666 13.6887C23.066 13.6887 23.6141 13.3816 23.9741 12.9008C24.3504 12.4054 24.4527 11.7714 24.4527 11.0868H23.4603C22.4354 11.0868 20.9138 11.2579 20.9138 12.6101C20.9138 13.3636 21.5462 13.6887 22.3666 13.6887ZM19.6818 6.80664C20.571 6.39549 21.7687 6.13916 22.7421 6.13916C25.4278 6.13916 26.5378 7.2522 26.5378 9.85416V10.9835C26.5378 11.8747 26.5558 12.5421 26.5722 13.1924C26.5885 13.8599 26.6237 14.4766 26.6744 15.1604H24.658C24.5721 14.6994 24.5721 14.1162 24.5549 13.8427H24.5214C23.9913 14.8181 22.846 15.3669 21.803 15.3669C20.2454 15.3669 18.7256 14.4241 18.7256 12.7468C18.7256 11.4291 19.3562 10.6593 20.2291 10.2309C21.1011 9.80169 22.23 9.7174 23.1871 9.7174H24.4527C24.4527 8.29556 23.8195 7.81646 22.4689 7.81646C21.4938 7.81646 20.5203 8.19321 19.7505 8.77553L19.6818 6.80664Z" fill="#FEFEFE"/>
<path fill-rule="evenodd" clip-rule="evenodd" d="M34.0506 8.24481C33.6399 8.05644 33.1957 7.91967 32.4947 7.91967C31.0754 7.91967 30.169 9.04905 30.169 10.71C30.169 12.3357 30.9388 13.5855 32.5454 13.5855C33.1957 13.5855 33.914 13.3455 34.3075 13.1752L34.4097 15.0744C33.743 15.28 33.0591 15.3669 32.1184 15.3669C29.2299 15.3669 27.7754 13.398 27.7754 10.71C27.7754 8.15879 29.2798 6.13916 32.0325 6.13916C32.9569 6.13916 33.6227 6.24152 34.2559 6.42989L34.0506 8.24481Z" fill="#FEFEFE"/>
<path fill-rule="evenodd" clip-rule="evenodd" d="M40.9152 9.88856C40.8464 8.77553 40.3327 7.81646 39.0508 7.81646C37.769 7.81646 37.1195 8.70672 37.0172 9.88856H40.9152ZM42.4539 14.6641C41.6154 15.1269 40.6591 15.3669 39.428 15.3669C36.5215 15.3669 34.8281 13.6887 34.8281 10.7952C34.8281 8.24481 36.1778 6.13916 38.9151 6.13916C42.1807 6.13916 43.1034 8.38158 43.1034 11.4626H37.0172C37.1195 12.8836 38.1109 13.6887 39.5302 13.6887C40.642 13.6887 41.599 13.2776 42.4539 12.7985V14.6641Z" fill="#FEFEFE"/>
<path fill-rule="evenodd" clip-rule="evenodd" d="M49.2578 3.21191H51.6514V10.1112C51.6514 12.148 52.3018 13.4838 54.1309 13.4838C55.9609 13.4838 56.6104 12.148 56.6104 10.1112V3.21191H59.0048V10.8466C59.0048 14.0481 57.1912 15.3667 54.1309 15.3667C51.0698 15.3667 49.2578 14.0481 49.2578 10.8466V3.21191Z" fill="#FEFEFE"/>
<path fill-rule="evenodd" clip-rule="evenodd" d="M63.8084 8.94704L60.2516 3.2124H63.0215L65.5181 7.47445L68.0655 3.2124H70.6301L67.0405 8.94704L70.9557 15.1608H68.1342L65.3815 10.5048L62.5945 15.1608H59.8916L63.8084 8.94704Z" fill="#FEFEFE"/>
<path fill-rule="evenodd" clip-rule="evenodd" d="M79.1444 13.2778H80.4778C82.4788 13.2778 84.411 11.788 84.411 9.18604C84.411 6.58408 82.4788 5.09515 80.4778 5.09515H79.1444V13.2778ZM76.75 3.21143H80.0165C83.6756 3.21143 86.9077 4.44402 86.9077 9.18604C86.9077 13.9281 83.6756 15.1598 80.0165 15.1598H76.75V3.21143Z" fill="#FEFEFE"/>
<path fill-rule="evenodd" clip-rule="evenodd" d="M94.0498 9.88856C93.9811 8.77553 93.4682 7.81646 92.1855 7.81646C90.9036 7.81646 90.2533 8.70672 90.151 9.88856H94.0498ZM95.5877 14.6641C94.7509 15.1269 93.7929 15.3669 92.5618 15.3669C89.6553 15.3669 87.9619 13.6887 87.9619 10.7952C87.9619 8.24481 89.3125 6.13916 92.0489 6.13916C95.3153 6.13916 96.2381 8.38158 96.2381 11.4626H90.151C90.2533 12.8836 91.2447 13.6887 92.6649 13.6887C93.7766 13.6887 94.7337 13.2776 95.5877 12.7985V14.6641Z" fill="#FEFEFE"/>
<path fill-rule="evenodd" clip-rule="evenodd" d="M102.866 8.1932C102.164 7.95408 101.651 7.81645 100.813 7.81645C100.197 7.81645 99.4629 8.03924 99.4629 8.79187C99.4629 10.1965 103.447 9.30624 103.447 12.4905C103.447 14.5446 101.617 15.3669 99.7524 15.3669C98.8804 15.3669 97.9921 15.212 97.1544 14.9884L97.291 13.1064C98.0092 13.4659 98.761 13.6887 99.548 13.6887C100.13 13.6887 101.053 13.4659 101.053 12.6101C101.053 10.8812 97.0693 12.0622 97.0693 8.87788C97.0693 6.97781 98.7275 6.13916 100.521 6.13916C101.6 6.13916 102.301 6.31033 103.019 6.4643L102.866 8.1932Z" fill="#FEFEFE"/>
<mask id="mask0_9593_6144" style="mask-type:alpha" maskUnits="userSpaceOnUse" x="0" y="0" width="189" height="19">
<path d="M0 18.6835H188.17V0H0V18.6835Z" fill="white"/>
</mask>
<g mask="url(#mask0_9593_6144)">
<path fill-rule="evenodd" clip-rule="evenodd" d="M104.788 15.1603H107.079V6.34458H104.788V15.1603ZM104.788 4.73524H107.079V2.54443H104.788V4.73524Z" fill="#FEFEFE"/>
<path fill-rule="evenodd" clip-rule="evenodd" d="M114.834 10.6589C114.834 9.1519 114.252 7.9193 112.919 7.9193C111.363 7.9193 110.866 9.35747 110.866 10.7105C110.866 11.9078 111.499 13.3813 112.816 13.3813C114.252 13.3813 114.834 12.1306 114.834 10.6589ZM117.125 6.34436V14.3051C117.125 16.7015 116.167 18.9611 112.474 18.9611C111.568 18.9611 110.525 18.8243 109.431 18.3624L109.619 16.4107C110.32 16.7875 111.465 17.1814 112.184 17.1814C114.714 17.1814 114.834 15.2805 114.834 13.7572H114.8C114.373 14.5106 113.347 15.1601 112.064 15.1601C109.465 15.1601 108.474 13.0725 108.474 10.7105C108.474 8.58764 109.567 6.13965 112.201 6.13965C113.364 6.13965 114.27 6.53274 114.903 7.54255H114.935V6.34436H117.125Z" fill="#FEFEFE"/>
<path fill-rule="evenodd" clip-rule="evenodd" d="M118.967 6.34474H121.138V7.54293H121.172C121.89 6.53311 122.865 6.13916 124.062 6.13916C126.148 6.13916 127.055 7.61174 127.055 9.59697V15.1604H124.763V10.4528C124.763 9.37419 124.746 7.91967 123.275 7.91967C121.616 7.91967 121.258 9.71739 121.258 10.8468V15.1604H118.967V6.34474Z" fill="#FEFEFE"/>
<path fill-rule="evenodd" clip-rule="evenodd" d="M140.27 5.40273C139.518 5.0776 138.68 4.88922 137.843 4.88922C137.023 4.88922 135.962 5.24877 135.962 6.54932C135.962 8.62056 141.195 7.74836 141.195 11.7541C141.195 14.3741 139.125 15.3667 136.713 15.3667C135.415 15.3667 134.833 15.1956 133.653 14.904L133.876 12.7467C134.697 13.1923 135.636 13.4839 136.578 13.4839C137.484 13.4839 138.699 13.0202 138.699 11.9425C138.699 9.66565 133.465 10.6067 133.465 6.65167C133.465 3.98176 135.534 3.00635 137.638 3.00635C138.664 3.00635 139.621 3.14311 140.493 3.43384L140.27 5.40273Z" fill="#FEFEFE"/>
<path fill-rule="evenodd" clip-rule="evenodd" d="M145.854 12.7804H145.887L148.008 6.34473H150.333L147.033 15.0916C146.298 17.0433 145.768 18.9614 143.374 18.9614C142.826 18.9614 142.28 18.8754 141.75 18.7215L141.903 17.027C142.194 17.1293 142.518 17.1809 143.083 17.1809C144.007 17.1809 144.57 16.5479 144.57 15.6051L141.203 6.34473H143.732L145.854 12.7804Z" fill="#FEFEFE"/>
<path fill-rule="evenodd" clip-rule="evenodd" d="M156.391 8.1932C155.69 7.95408 155.177 7.81645 154.339 7.81645C153.725 7.81645 152.989 8.03924 152.989 8.79187C152.989 10.1965 156.973 9.30624 156.973 12.4905C156.973 14.5446 155.143 15.3669 153.279 15.3669C152.408 15.3669 151.518 15.212 150.681 14.9884L150.817 13.1064C151.535 13.4659 152.287 13.6887 153.074 13.6887C153.654 13.6887 154.579 13.4659 154.579 12.6101C154.579 10.8812 150.595 12.0622 150.595 8.87788C150.595 6.97781 152.254 6.13916 154.048 6.13916C155.126 6.13916 155.827 6.31033 156.545 6.4643L156.391 8.1932Z" fill="#FEFEFE"/>
<path fill-rule="evenodd" clip-rule="evenodd" d="M159.033 8.02212H157.34V6.34482H159.033V4.58151L161.325 3.84521V6.34482H163.359V8.02212H161.325V12.1302C161.325 12.8837 161.529 13.5864 162.4 13.5864C162.812 13.5864 163.205 13.5004 163.445 13.3456L163.514 15.1605C163.034 15.2981 162.504 15.367 161.82 15.367C160.024 15.367 159.033 14.2539 159.033 12.5078V8.02212Z" fill="#FEFEFE"/>
<path fill-rule="evenodd" clip-rule="evenodd" d="M169.914 9.88856C169.844 8.77553 169.331 7.81646 168.049 7.81646C166.767 7.81646 166.118 8.70672 166.015 9.88856H169.914ZM171.453 14.6641C170.613 15.1269 169.656 15.3669 168.426 15.3669C165.519 15.3669 163.825 13.6887 163.825 10.7952C163.825 8.24481 165.176 6.13916 167.913 6.13916C171.178 6.13916 172.101 8.38158 172.101 11.4626H166.015C166.118 12.8836 167.109 13.6887 168.528 13.6887C169.64 13.6887 170.597 13.2776 171.453 12.7985V14.6641Z" fill="#FEFEFE"/>
<path fill-rule="evenodd" clip-rule="evenodd" d="M173.428 6.34474H175.566V7.5782H175.601C176.319 6.49871 177.362 6.13916 178.217 6.13916C179.448 6.13916 180.32 6.60193 180.816 7.6969C181.346 6.63547 182.491 6.13916 183.568 6.13916C185.74 6.13916 186.356 7.62809 186.356 9.59697V15.1604H184.065V9.90576C184.065 9.08432 184.065 7.91967 182.749 7.91967C181.226 7.91967 181.038 9.73374 181.038 10.8812V15.1604H178.747V9.90576C178.747 9.08432 178.747 7.91967 177.431 7.91967C175.908 7.91967 175.72 9.73374 175.72 10.8812V15.1604H173.428V6.34474Z" fill="#FEFEFE"/>
</g>
<path d="M203.978 10.6048V16.0146H202.855V2.73178H207.38C208.761 2.73178 209.85 3.08453 210.646 3.79003C211.449 4.49553 211.851 5.46559 211.851 6.70021C211.851 7.94699 211.464 8.91097 210.692 9.59214C209.926 10.2672 208.813 10.6048 207.353 10.6048H203.978ZM203.978 9.656H207.38C208.469 9.656 209.299 9.39752 209.871 8.88056C210.443 8.3636 210.728 7.6429 210.728 6.71845C210.728 5.80009 210.443 5.07026 209.871 4.52898C209.305 3.98161 208.499 3.70184 207.453 3.68968H203.978V9.656Z" fill="#F68E1E"/>
<path d="M215.491 10.6048V16.0146H214.368V2.73178H218.893C220.274 2.73178 221.363 3.08453 222.159 3.79003C222.962 4.49553 223.364 5.46559 223.364 6.70021C223.364 7.94699 222.977 8.91097 222.205 9.59214C221.439 10.2672 220.326 10.6048 218.866 10.6048H215.491ZM215.491 9.656H218.893C219.982 9.656 220.812 9.39752 221.384 8.88056C221.956 8.3636 222.241 7.6429 222.241 6.71845C222.241 5.80009 221.956 5.07026 221.384 4.52898C220.818 3.98161 220.012 3.70184 218.966 3.68968H215.491V9.656Z" fill="#F68E1E"/>
<path d="M234.895 3.68968H230.343V16.0146H229.22V3.68968H224.677V2.73178H234.895V3.68968Z" fill="#F68E1E"/>
<path d="M249.875 3.68968H245.322V16.0146H244.2V3.68968H239.657V2.73178H249.875V3.68968Z" fill="#F68E1E"/>
<path d="M250.258 10.9332C250.258 9.98442 250.44 9.12992 250.805 8.36968C251.176 7.60945 251.696 7.01951 252.365 6.59986C253.04 6.17413 253.803 5.96126 254.655 5.96126C255.969 5.96126 257.033 6.42348 257.848 7.34793C258.663 8.26629 259.07 9.48571 259.07 11.0062V11.2343C259.07 12.1891 258.885 13.0497 258.514 13.816C258.149 14.5762 257.632 15.1631 256.963 15.5767C256.294 15.9903 255.531 16.1971 254.673 16.1971C253.366 16.1971 252.301 15.7379 251.48 14.8195C250.665 13.8951 250.258 12.6726 250.258 11.1521V10.9332ZM251.352 11.2343C251.352 12.4141 251.656 13.3842 252.265 14.1444C252.879 14.8986 253.682 15.2757 254.673 15.2757C255.658 15.2757 256.455 14.8986 257.063 14.1444C257.678 13.3842 257.985 12.3837 257.985 11.143V10.9332C257.985 10.179 257.845 9.48875 257.565 8.86232C257.285 8.23588 256.893 7.75237 256.388 7.41179C255.883 7.06512 255.306 6.89179 254.655 6.89179C253.682 6.89179 252.888 7.27495 252.274 8.04126C251.66 8.8015 251.352 9.79893 251.352 11.0335V11.2343Z" fill="#F68E1E"/>
<path d="M260.731 10.9332C260.731 9.98442 260.913 9.12992 261.278 8.36968C261.649 7.60945 262.169 7.01951 262.838 6.59986C263.513 6.17413 264.276 5.96126 265.128 5.96126C266.442 5.96126 267.506 6.42348 268.321 7.34793C269.136 8.26629 269.543 9.48571 269.543 11.0062V11.2343C269.543 12.1891 269.358 13.0497 268.987 13.816C268.622 14.5762 268.105 15.1631 267.436 15.5767C266.767 15.9903 266.004 16.1971 265.146 16.1971C263.839 16.1971 262.774 15.7379 261.953 14.8195C261.138 13.8951 260.731 12.6726 260.731 11.1521V10.9332ZM261.825 11.2343C261.825 12.4141 262.13 13.3842 262.738 14.1444C263.352 14.8986 264.155 15.2757 265.146 15.2757C266.131 15.2757 266.928 14.8986 267.536 14.1444C268.151 13.3842 268.458 12.3837 268.458 11.143V10.9332C268.458 10.179 268.318 9.48875 268.038 8.86232C267.758 8.23588 267.366 7.75237 266.861 7.41179C266.356 7.06512 265.779 6.89179 265.128 6.89179C264.155 6.89179 263.361 7.27495 262.747 8.04126C262.133 8.8015 261.825 9.79893 261.825 11.0335V11.2343Z" fill="#F68E1E"/>
<path d="M273.028 16.0146H271.933V2.00195H273.028V16.0146Z" fill="#F68E1E"/>
<path d="M278.347 11.0427L277.097 12.2469V16.0146H276.002V2.00195H277.097V10.9697L278.128 9.85671L281.905 6.14372H283.282L279.095 10.3037L283.647 16.0146H282.343L278.347 11.0427Z" fill="#F68E1E"/>
<path d="M286.384 16.0146H285.289V6.14372H286.384V16.0146ZM285.098 3.28827C285.098 3.08149 285.165 2.90815 285.298 2.76827C285.432 2.62231 285.615 2.54932 285.846 2.54932C286.077 2.54932 286.259 2.62231 286.393 2.76827C286.533 2.90815 286.603 3.08149 286.603 3.28827C286.603 3.49506 286.533 3.66839 286.393 3.80827C286.259 3.94816 286.077 4.0181 285.846 4.0181C285.615 4.0181 285.432 3.94816 285.298 3.80827C285.165 3.66839 285.098 3.49506 285.098 3.28827Z" fill="#F68E1E"/>
<path d="M291.055 3.61669V6.14372H293.098V7.03775H291.055V13.6153C291.055 14.1627 291.152 14.5702 291.347 14.8378C291.548 15.1054 291.879 15.2392 292.341 15.2392C292.524 15.2392 292.819 15.2088 293.226 15.1479L293.272 16.042C292.986 16.1454 292.597 16.1971 292.104 16.1971C291.356 16.1971 290.812 15.9812 290.471 15.5493C290.13 15.1115 289.96 14.4698 289.96 13.6244V7.03775H288.145V6.14372H289.96V3.61669H291.055Z" fill="#F68E1E"/>
</svg>
