<svg width="92" height="15" viewBox="0 0 92 15" fill="none" xmlns="http://www.w3.org/2000/svg" id="content">
<path d="M1.97758 8.60478V14.0146H0.855469V0.731779H5.38039C6.76098 0.731779 7.84963 1.08453 8.64636 1.79003C9.44917 2.49553 9.85057 3.46559 9.85057 4.70021C9.85057 5.94699 9.46437 6.91097 8.69198 7.59214C7.92566 8.26723 6.81267 8.60478 5.35302 8.60478H1.97758ZM1.97758 7.656H5.38039C6.46905 7.656 7.29922 7.39752 7.87092 6.88056C8.44262 6.3636 8.72847 5.6429 8.72847 4.71845C8.72847 3.80009 8.44262 3.07026 7.87092 2.52898C7.30531 1.98161 6.49946 1.70184 5.45337 1.68968H1.97758V7.656Z" fill="#F68E1E"/>
<path d="M13.4906 8.60478V14.0146H12.3685V0.731779H16.8934C18.274 0.731779 19.3626 1.08453 20.1594 1.79003C20.9622 2.49553 21.3636 3.46559 21.3636 4.70021C21.3636 5.94699 20.9774 6.91097 20.205 7.59214C19.4387 8.26723 18.3257 8.60478 16.866 8.60478H13.4906ZM13.4906 7.656H16.8934C17.9821 7.656 18.8122 7.39752 19.3839 6.88056C19.9556 6.3636 20.2415 5.6429 20.2415 4.71845C20.2415 3.80009 19.9556 3.07026 19.3839 2.52898C18.8183 1.98161 18.0125 1.70184 16.9664 1.68968H13.4906V7.656Z" fill="#F68E1E"/>
<path d="M32.8948 1.68968H28.3425V14.0146H27.2204V1.68968H22.6773V0.731779H32.8948V1.68968Z" fill="#F68E1E"/>
<path d="M47.8745 1.68968H43.3222V14.0146H42.2001V1.68968H37.6569V0.731779H47.8745V1.68968Z" fill="#F68E1E"/>
<path d="M48.2577 8.9332C48.2577 7.98442 48.4401 7.12992 48.805 6.36968C49.176 5.60945 49.696 5.01951 50.365 4.59986C51.0401 4.17413 51.8034 3.96126 52.6549 3.96126C53.9686 3.96126 55.0329 4.42348 55.8479 5.34793C56.6628 6.26629 57.0703 7.48571 57.0703 9.00618V9.23425C57.0703 10.1891 56.8848 11.0497 56.5138 11.816C56.1489 12.5762 55.632 13.1631 54.9629 13.5767C54.2939 13.9903 53.5307 14.1971 52.6731 14.1971C51.3655 14.1971 50.3012 13.7379 49.4801 12.8195C48.6652 11.8951 48.2577 10.6726 48.2577 9.15215V8.9332ZM49.3524 9.23425C49.3524 10.4141 49.6565 11.3842 50.2647 12.1444C50.879 12.8986 51.6818 13.2757 52.6731 13.2757C53.6584 13.2757 54.4551 12.8986 55.0633 12.1444C55.6776 11.3842 55.9847 10.3837 55.9847 9.14302V8.9332C55.9847 8.17904 55.8448 7.48875 55.565 6.86232C55.2853 6.23588 54.893 5.75237 54.3882 5.41179C53.8834 5.06512 53.3056 4.89179 52.6549 4.89179C51.6818 4.89179 50.8881 5.27495 50.2738 6.04126C49.6595 6.8015 49.3524 7.79893 49.3524 9.03355V9.23425Z" fill="#F68E1E"/>
<path d="M58.7307 8.9332C58.7307 7.98442 58.9131 7.12992 59.278 6.36968C59.649 5.60945 60.169 5.01951 60.838 4.59986C61.5131 4.17413 62.2764 3.96126 63.1279 3.96126C64.4416 3.96126 65.5059 4.42348 66.3209 5.34793C67.1358 6.26629 67.5433 7.48571 67.5433 9.00618V9.23425C67.5433 10.1891 67.3578 11.0497 66.9868 11.816C66.6219 12.5762 66.1049 13.1631 65.4359 13.5767C64.7669 13.9903 64.0037 14.1971 63.1461 14.1971C61.8385 14.1971 60.7742 13.7379 59.9531 12.8195C59.1382 11.8951 58.7307 10.6726 58.7307 9.15215V8.9332ZM59.8254 9.23425C59.8254 10.4141 60.1295 11.3842 60.7377 12.1444C61.352 12.8986 62.1548 13.2757 63.1461 13.2757C64.1314 13.2757 64.9281 12.8986 65.5363 12.1444C66.1506 11.3842 66.4577 10.3837 66.4577 9.14302V8.9332C66.4577 8.17904 66.3178 7.48875 66.0381 6.86232C65.7583 6.23588 65.366 5.75237 64.8612 5.41179C64.3564 5.06512 63.7786 4.89179 63.1279 4.89179C62.1548 4.89179 61.3611 5.27495 60.7468 6.04126C60.1325 6.8015 59.8254 7.79893 59.8254 9.03355V9.23425Z" fill="#F68E1E"/>
<path d="M71.0282 14.0146H69.9335V0.00195312H71.0282V14.0146Z" fill="#F68E1E"/>
<path d="M76.3468 9.04267L75.097 10.2469V14.0146H74.0023V0.00195312H75.097V8.96969L76.1279 7.85671L79.9047 4.14372H81.2823L77.0949 8.30372L81.6472 14.0146H80.3426L76.3468 9.04267Z" fill="#F68E1E"/>
<path d="M84.384 14.0146H83.2893V4.14372H84.384V14.0146ZM83.0977 1.28827C83.0977 1.08149 83.1646 0.908154 83.2984 0.76827C83.4322 0.622305 83.6147 0.549323 83.8458 0.549323C84.0769 0.549323 84.2594 0.622305 84.3932 0.76827C84.5331 0.908154 84.603 1.08149 84.603 1.28827C84.603 1.49506 84.5331 1.66839 84.3932 1.80827C84.2594 1.94816 84.0769 2.0181 83.8458 2.0181C83.6147 2.0181 83.4322 1.94816 83.2984 1.80827C83.1646 1.66839 83.0977 1.49506 83.0977 1.28827Z" fill="#F68E1E"/>
<path d="M89.0549 1.61669V4.14372H91.0984V5.03775H89.0549V11.6153C89.0549 12.1627 89.1523 12.5702 89.3469 12.8378C89.5476 13.1054 89.879 13.2392 90.3413 13.2392C90.5237 13.2392 90.8187 13.2088 91.2262 13.1479L91.2718 14.042C90.9859 14.1454 90.5967 14.1971 90.1041 14.1971C89.356 14.1971 88.8117 13.9812 88.4711 13.5493C88.1305 13.1115 87.9602 12.4698 87.9602 11.6244V5.03775H86.1448V4.14372H87.9602V1.61669H89.0549Z" fill="#F68E1E"/>
</svg>
