<svg width="189" height="19" viewBox="0 0 189 19" fill="none" xmlns="http://www.w3.org/2000/svg" id="content">
<path fill-rule="evenodd" clip-rule="evenodd" d="M7.11302 5.40286C6.36213 5.07772 5.5236 4.88935 4.68594 4.88935C3.8646 4.88935 2.80355 5.24889 2.80355 6.54944C2.80355 8.62069 8.03746 7.74849 8.03746 11.7542C8.03746 14.3742 5.96864 15.3669 3.55788 15.3669C2.25885 15.3669 1.67721 15.1957 0.496747 14.9041L0.719265 12.7468C1.53975 13.1924 2.47965 13.484 3.42128 13.484C4.32768 13.484 5.54165 13.0204 5.54165 11.9426C5.54165 9.66577 0.308594 10.6068 0.308594 6.65179C0.308594 3.98188 2.37742 3.00647 4.4806 3.00647C5.50728 3.00647 6.46437 3.14324 7.3364 3.43397L7.11302 5.40286Z" fill="#FEFEFE"/>
<path fill-rule="evenodd" clip-rule="evenodd" d="M11.6268 10.7276C11.6268 11.9765 12.1216 13.5859 13.644 13.5859C15.1493 13.5859 15.5771 11.9421 15.5771 10.7276C15.5771 9.54573 15.1656 7.91918 13.6793 7.91918C12.2084 7.91918 11.6268 9.49412 11.6268 10.7276ZM9.31909 6.34424H11.5073V7.59405H11.5408C12.0546 6.73819 12.9266 6.13953 14.2772 6.13953C16.9784 6.13953 17.9707 8.29593 17.9707 10.7276C17.9707 13.1412 16.9784 15.3672 14.2257 15.3672C13.2514 15.3672 12.4472 15.1264 11.6448 14.1501H11.6096V18.7554H9.31909V6.34424Z" fill="#FEFEFE"/>
<path fill-rule="evenodd" clip-rule="evenodd" d="M22.3666 13.6887C23.066 13.6887 23.6141 13.3816 23.9741 12.9008C24.3504 12.4054 24.4527 11.7714 24.4527 11.0868H23.4603C22.4354 11.0868 20.9138 11.2579 20.9138 12.6101C20.9138 13.3636 21.5462 13.6887 22.3666 13.6887ZM19.6818 6.80664C20.571 6.39549 21.7687 6.13916 22.7421 6.13916C25.4278 6.13916 26.5378 7.2522 26.5378 9.85416V10.9835C26.5378 11.8747 26.5558 12.5421 26.5722 13.1924C26.5885 13.8599 26.6237 14.4766 26.6744 15.1604H24.658C24.5721 14.6994 24.5721 14.1162 24.5549 13.8427H24.5214C23.9913 14.8181 22.846 15.3669 21.803 15.3669C20.2454 15.3669 18.7256 14.4241 18.7256 12.7468C18.7256 11.4291 19.3562 10.6593 20.2291 10.2309C21.1011 9.80169 22.23 9.7174 23.1871 9.7174H24.4527C24.4527 8.29556 23.8195 7.81646 22.4689 7.81646C21.4938 7.81646 20.5203 8.19321 19.7505 8.77553L19.6818 6.80664Z" fill="#FEFEFE"/>
<path fill-rule="evenodd" clip-rule="evenodd" d="M34.0506 8.24481C33.6399 8.05644 33.1957 7.91967 32.4947 7.91967C31.0754 7.91967 30.169 9.04905 30.169 10.71C30.169 12.3357 30.9388 13.5855 32.5454 13.5855C33.1957 13.5855 33.914 13.3455 34.3075 13.1752L34.4097 15.0744C33.743 15.28 33.0591 15.3669 32.1184 15.3669C29.2299 15.3669 27.7754 13.398 27.7754 10.71C27.7754 8.15879 29.2798 6.13916 32.0325 6.13916C32.9569 6.13916 33.6227 6.24152 34.2559 6.42989L34.0506 8.24481Z" fill="#FEFEFE"/>
<path fill-rule="evenodd" clip-rule="evenodd" d="M40.9149 9.88844C40.8462 8.77541 40.3324 7.81634 39.0506 7.81634C37.7687 7.81634 37.1192 8.70659 37.017 9.88844H40.9149ZM42.4537 14.664C41.6151 15.1268 40.6589 15.3668 39.4277 15.3668C36.5213 15.3668 34.8279 13.6886 34.8279 10.795C34.8279 8.24469 36.1776 6.13904 38.9148 6.13904C42.1804 6.13904 43.1032 8.38146 43.1032 11.4625H37.017C37.1192 12.8835 38.1107 13.6886 39.53 13.6886C40.6417 13.6886 41.5988 13.2774 42.4537 12.7983V14.664Z" fill="#FEFEFE"/>
<path fill-rule="evenodd" clip-rule="evenodd" d="M49.2578 3.21191H51.6514V10.1112C51.6514 12.148 52.3018 13.4838 54.1309 13.4838C55.9609 13.4838 56.6104 12.148 56.6104 10.1112V3.21191H59.0048V10.8466C59.0048 14.0481 57.1912 15.3667 54.1309 15.3667C51.0698 15.3667 49.2578 14.0481 49.2578 10.8466V3.21191Z" fill="#FEFEFE"/>
<path fill-rule="evenodd" clip-rule="evenodd" d="M63.8082 8.94679L60.2513 3.21216H63.0212L65.5179 7.47421L68.0653 3.21216H70.6298L67.0403 8.94679L70.9554 15.1605H68.134L65.3813 10.5045L62.5942 15.1605H59.8914L63.8082 8.94679Z" fill="#FEFEFE"/>
<path fill-rule="evenodd" clip-rule="evenodd" d="M79.1444 13.2778H80.4778C82.4788 13.2778 84.411 11.788 84.411 9.18604C84.411 6.58408 82.4788 5.09515 80.4778 5.09515H79.1444V13.2778ZM76.75 3.21143H80.0165C83.6756 3.21143 86.9077 4.44402 86.9077 9.18604C86.9077 13.9281 83.6756 15.1598 80.0165 15.1598H76.75V3.21143Z" fill="#FEFEFE"/>
<path fill-rule="evenodd" clip-rule="evenodd" d="M94.0498 9.88856C93.9811 8.77553 93.4682 7.81646 92.1855 7.81646C90.9036 7.81646 90.2533 8.70672 90.151 9.88856H94.0498ZM95.5877 14.6641C94.7509 15.1269 93.7929 15.3669 92.5618 15.3669C89.6553 15.3669 87.9619 13.6887 87.9619 10.7952C87.9619 8.24481 89.3125 6.13916 92.0489 6.13916C95.3153 6.13916 96.2381 8.38158 96.2381 11.4626H90.151C90.2533 12.8836 91.2447 13.6887 92.6649 13.6887C93.7766 13.6887 94.7337 13.2776 95.5877 12.7985V14.6641Z" fill="#FEFEFE"/>
<path fill-rule="evenodd" clip-rule="evenodd" d="M102.866 8.1932C102.164 7.95408 101.651 7.81645 100.813 7.81645C100.197 7.81645 99.4629 8.03924 99.4629 8.79187C99.4629 10.1965 103.447 9.30624 103.447 12.4905C103.447 14.5446 101.617 15.3669 99.7524 15.3669C98.8804 15.3669 97.9921 15.212 97.1544 14.9884L97.291 13.1064C98.0092 13.4659 98.761 13.6887 99.548 13.6887C100.13 13.6887 101.053 13.4659 101.053 12.6101C101.053 10.8812 97.0693 12.0622 97.0693 8.87788C97.0693 6.97781 98.7275 6.13916 100.521 6.13916C101.6 6.13916 102.301 6.31033 103.019 6.4643L102.866 8.1932Z" fill="#FEFEFE"/>
<mask id="mask0_9634_6860" style="mask-type:alpha" maskUnits="userSpaceOnUse" x="0" y="0" width="189" height="19">
<path d="M0 18.6835H188.17V0H0V18.6835Z" fill="white"/>
</mask>
<g mask="url(#mask0_9634_6860)">
<path fill-rule="evenodd" clip-rule="evenodd" d="M104.788 15.1602H107.079V6.34446H104.788V15.1602ZM104.788 4.73512H107.079V2.54431H104.788V4.73512Z" fill="#FEFEFE"/>
<path fill-rule="evenodd" clip-rule="evenodd" d="M114.834 10.6588C114.834 9.15178 114.252 7.91918 112.919 7.91918C111.363 7.91918 110.867 9.35735 110.867 10.7104C110.867 11.9077 111.499 13.3811 112.816 13.3811C114.252 13.3811 114.834 12.1305 114.834 10.6588ZM117.125 6.34424V14.3049C117.125 16.7013 116.168 18.961 112.474 18.961C111.569 18.961 110.526 18.8242 109.431 18.3623L109.619 16.4106C110.32 16.7874 111.465 17.1813 112.185 17.1813C114.715 17.1813 114.834 15.2804 114.834 13.757H114.8C114.374 14.5105 113.347 15.1599 112.064 15.1599C109.465 15.1599 108.474 13.0724 108.474 10.7104C108.474 8.58752 109.568 6.13953 112.201 6.13953C113.364 6.13953 114.271 6.53261 114.903 7.54243H114.935V6.34424H117.125Z" fill="#FEFEFE"/>
<path fill-rule="evenodd" clip-rule="evenodd" d="M118.967 6.34474H121.138V7.54293H121.172C121.89 6.53311 122.865 6.13916 124.062 6.13916C126.148 6.13916 127.055 7.61174 127.055 9.59697V15.1604H124.763V10.4528C124.763 9.37419 124.746 7.91967 123.275 7.91967C121.616 7.91967 121.258 9.71739 121.258 10.8468V15.1604H118.967V6.34474Z" fill="#FEFEFE"/>
<path fill-rule="evenodd" clip-rule="evenodd" d="M140.27 5.40273C139.518 5.0776 138.68 4.88922 137.843 4.88922C137.023 4.88922 135.962 5.24877 135.962 6.54932C135.962 8.62056 141.195 7.74836 141.195 11.7541C141.195 14.3741 139.125 15.3667 136.713 15.3667C135.415 15.3667 134.833 15.1956 133.653 14.904L133.876 12.7467C134.697 13.1923 135.636 13.4839 136.578 13.4839C137.484 13.4839 138.699 13.0202 138.699 11.9425C138.699 9.66565 133.465 10.6067 133.465 6.65167C133.465 3.98176 135.534 3.00635 137.638 3.00635C138.664 3.00635 139.621 3.14311 140.493 3.43384L140.27 5.40273Z" fill="#FEFEFE"/>
<path fill-rule="evenodd" clip-rule="evenodd" d="M145.854 12.7804H145.887L148.008 6.34473H150.333L147.033 15.0916C146.298 17.0433 145.768 18.9614 143.374 18.9614C142.826 18.9614 142.28 18.8754 141.75 18.7215L141.903 17.027C142.194 17.1293 142.518 17.1809 143.083 17.1809C144.007 17.1809 144.57 16.5479 144.57 15.6051L141.203 6.34473H143.732L145.854 12.7804Z" fill="#FEFEFE"/>
<path fill-rule="evenodd" clip-rule="evenodd" d="M156.391 8.1932C155.69 7.95408 155.177 7.81645 154.339 7.81645C153.725 7.81645 152.989 8.03924 152.989 8.79187C152.989 10.1965 156.973 9.30624 156.973 12.4905C156.973 14.5446 155.143 15.3669 153.279 15.3669C152.408 15.3669 151.518 15.212 150.681 14.9884L150.817 13.1064C151.535 13.4659 152.287 13.6887 153.074 13.6887C153.654 13.6887 154.579 13.4659 154.579 12.6101C154.579 10.8812 150.595 12.0622 150.595 8.87788C150.595 6.97781 152.254 6.13916 154.048 6.13916C155.126 6.13916 155.827 6.31033 156.545 6.4643L156.391 8.1932Z" fill="#FEFEFE"/>
<path fill-rule="evenodd" clip-rule="evenodd" d="M159.033 8.02199H157.34V6.3447H159.033V4.58139L161.325 3.84509V6.3447H163.359V8.02199H161.325V12.1301C161.325 12.8836 161.529 13.5863 162.4 13.5863C162.812 13.5863 163.205 13.5003 163.445 13.3455L163.514 15.1604C163.034 15.298 162.504 15.3668 161.82 15.3668C160.024 15.3668 159.033 14.2538 159.033 12.5077V8.02199Z" fill="#FEFEFE"/>
<path fill-rule="evenodd" clip-rule="evenodd" d="M169.914 9.88856C169.844 8.77553 169.331 7.81646 168.049 7.81646C166.767 7.81646 166.118 8.70672 166.015 9.88856H169.914ZM171.453 14.6641C170.613 15.1269 169.656 15.3669 168.426 15.3669C165.519 15.3669 163.825 13.6887 163.825 10.7952C163.825 8.24481 165.176 6.13916 167.913 6.13916C171.178 6.13916 172.101 8.38158 172.101 11.4626H166.015C166.118 12.8836 167.109 13.6887 168.528 13.6887C169.64 13.6887 170.597 13.2776 171.453 12.7985V14.6641Z" fill="#FEFEFE"/>
<path fill-rule="evenodd" clip-rule="evenodd" d="M173.428 6.34474H175.566V7.5782H175.601C176.319 6.49871 177.362 6.13916 178.217 6.13916C179.448 6.13916 180.32 6.60193 180.816 7.6969C181.346 6.63547 182.491 6.13916 183.568 6.13916C185.74 6.13916 186.356 7.62809 186.356 9.59697V15.1604H184.065V9.90576C184.065 9.08432 184.065 7.91967 182.749 7.91967C181.226 7.91967 181.038 9.73374 181.038 10.8812V15.1604H178.747V9.90576C178.747 9.08432 178.747 7.91967 177.431 7.91967C175.908 7.91967 175.72 9.73374 175.72 10.8812V15.1604H173.428V6.34474Z" fill="#FEFEFE"/>
</g>
</svg>
