<svg id="content" xmlns="http://www.w3.org/2000/svg" viewBox="15 15 120 120">
	<title>Figma</title>
	<path fill="#0acf83" d="M58.53 136.42A20.45 20.45 0 0 0 79 115.98V93.61l-20.47 1.92a20.45 20.45 0 1 0 0 40.89Z" data-name="path0 fill"/>
	<path fill="#a259ff" d="M38.08 75.08a20.45 20.45 0 0 1 20.45-20.44L79 51.32v44.21H58.53a20.46 20.46 0 0 1-20.45-20.45Z" data-name="path1 fill"/>
	<path fill="#f24e1e" d="M38.08 34.19A20.45 20.45 0 0 1 58.53 13.8h24L79 54.64H58.53a20.46 20.46 0 0 1-20.45-20.45Z" data-name="path1 fill"/>
	<path fill="#ff7262" d="M79 13.8h20.42a20.45 20.45 0 0 1 0 40.89H79Z" data-name="path2 fill"/>
	<path fill="#1abcfe" d="M119.86 75.08a20.45 20.45 0 1 1-20.44-20.44 20.45 20.45 0 0 1 20.44 20.44Z" data-name="path3 fill"/>
</svg>
