<svg xmlns="http://www.w3.org/2000/svg" viewBox="0 0 32 40" id="content">
	<title>Rocket Communications, Inc.</title>
	<path d="M16.27 40V36.0967C17.8731 35.4046 18.8267 34.0131 19.1842 33.1083H19.2896L23.8011 35.2042V36.7317C23.8011 36.8494 23.8965 36.9449 24.0142 36.9449H25.2931C25.4108 36.9449 25.5063 36.8494 25.5063 36.7317V29.7335L25.5063 29.7217L25.5063 29.698C25.499 28.4783 25.12 27.4955 24.6537 27.4955C24.1873 27.4955 23.8083 28.4783 23.8011 29.698V30.0177L19.0764 24.0142V10.1953C18.9627 8.49018 17.1581 4.34572 16.27 2.48663V0H29.2718C30.449 0 31.4033 0.954273 31.4033 2.13144V15.6757C29.2082 16.1623 27.5667 18.1203 27.5667 20.4618C27.5667 22.8033 29.2082 24.7614 31.4033 25.248V37.8686C31.4033 39.0457 30.449 40 29.2718 40H16.27Z" fill="#FF8C00" />
	<path d="M15.1332 40V36.0967C13.5301 35.4046 12.5766 34.0131 12.2191 33.1083H12.1137L7.60215 35.2042V36.7317C7.60215 36.8494 7.50672 36.9449 7.38901 36.9449H6.11014C5.99243 36.9449 5.897 36.8494 5.897 36.7317V29.7335L5.89699 29.7217L5.897 29.698C5.90423 28.4783 6.28323 27.4955 6.74958 27.4955C7.21592 27.4955 7.59492 28.4783 7.60215 29.698V30.0177L12.3268 24.0142V10.1953C12.4405 8.49018 14.2451 4.34572 15.1332 2.48663V0H2.13144C0.954277 0 0 0.954273 0 2.13144V15.6757C2.19503 16.1623 3.83659 18.1203 3.83659 20.4618C3.83659 22.8033 2.19503 24.7614 0 25.248V37.8686C0 39.0457 0.954277 40 2.13144 40H15.1332Z" fill="#FFAF3D" />
</svg>