<svg width="62" height="20" viewBox="0 0 62 20" fill="none" xmlns="http://www.w3.org/2000/svg">
<g clip-path="url(#clip0_9310_4582)">
<path fill-rule="evenodd" clip-rule="evenodd" d="M40.1549 10.0117C40.1549 7.07233 38.7721 4.75293 36.1284 4.75293C33.4739 4.75293 31.8677 7.07233 31.8677 9.98873C31.8677 13.4448 33.7639 15.1901 36.4854 15.1901C37.8128 15.1901 38.8168 14.8801 39.575 14.4437V12.1473C38.8168 12.5377 37.9464 12.7789 36.8424 12.7789C35.7602 12.7789 34.8014 12.3885 34.6785 11.0336H40.1326C40.1326 10.8843 40.1549 10.2873 40.1549 10.0117ZM34.645 8.92093C34.645 7.62343 35.4148 7.08378 36.1172 7.08378C36.7977 7.08378 37.5228 7.62343 37.5228 8.92093H34.645Z" fill="white"/>
<path fill-rule="evenodd" clip-rule="evenodd" d="M27.5624 4.75293C26.4693 4.75293 25.7666 5.28113 25.3762 5.64853L25.2312 4.93668H22.7773V18.3246L25.5658 17.7161L25.577 14.4667C25.9785 14.7652 26.5697 15.1901 27.5512 15.1901C29.5478 15.1901 31.3658 13.5367 31.3658 9.89688C31.3547 6.56713 29.5143 4.75293 27.5624 4.75293ZM26.8931 12.664C26.235 12.664 25.8446 12.4229 25.577 12.1244L25.5658 7.86458C25.8558 7.53158 26.2573 7.30193 26.8931 7.30193C27.9081 7.30193 28.6108 8.47313 28.6108 9.97723C28.6108 11.5158 27.9193 12.664 26.8931 12.664Z" fill="white"/>
<path fill-rule="evenodd" clip-rule="evenodd" d="M18.9404 4.07512L21.7401 3.45512V1.12427L18.9404 1.73282V4.07512Z" fill="white"/>
<path d="M21.7401 4.94824H18.9404V14.995H21.7401V4.94824Z" fill="white"/>
<path fill-rule="evenodd" clip-rule="evenodd" d="M15.9397 5.79745L15.7613 4.9478H13.3521V14.9945H16.1405V8.1857C16.7986 7.3016 17.914 7.46235 18.2598 7.58865V4.9478C17.9029 4.81 16.5978 4.5574 15.9397 5.79745Z" fill="white"/>
<path fill-rule="evenodd" clip-rule="evenodd" d="M10.3621 2.45605L7.64052 3.0531L7.62939 12.2502C7.62939 13.9495 8.86748 15.2011 10.5182 15.2011C11.4329 15.2011 12.1021 15.0288 12.4702 14.8222V12.4913C12.1133 12.6406 10.3509 13.1687 10.3509 11.4694V7.3933H12.4702V4.94765H10.3509L10.3621 2.45605Z" fill="white"/>
<path fill-rule="evenodd" clip-rule="evenodd" d="M2.82195 7.86458C2.82195 7.41678 3.17885 7.24453 3.77002 7.24453C4.61773 7.24453 5.68849 7.50863 6.53621 7.97938V5.28113C5.61044 4.90223 4.69579 4.75293 3.77002 4.75293C1.50576 4.75293 0 5.97003 0 8.00233C0 11.1714 4.23849 10.6662 4.23849 12.0325C4.23849 12.5607 3.79231 12.7329 3.16773 12.7329C2.24196 12.7329 1.05964 12.3425 0.122692 11.8144V14.5471C1.16003 15.0064 2.20849 15.2016 3.16773 15.2016C5.48775 15.2016 7.08273 14.0189 7.08273 11.9636C7.07161 8.54203 2.82195 9.15053 2.82195 7.86458Z" fill="white"/>
<path d="M61.3835 5.63657C61.2441 5.40372 61.0357 5.22307 60.7894 5.12092L48.7219 0.0943645C48.3357 -0.0667855 47.8971 -0.0194858 47.5518 0.220564C47.2069 0.460564 47 0.861914 47 1.29121V7.49906C46.9995 8.02551 47.3099 8.49936 47.7835 8.69591L50.9119 9.99906L61.3835 14.36C61.5068 14.1556 61.5719 13.9195 61.5714 13.6787V6.31782C61.5719 6.07701 61.5068 5.84092 61.3835 5.63657Z" fill="url(#paint0_linear_9310_4582)"/>
<path d="M61.3893 5.6377L50.9149 9.99865L47.7839 11.3033C47.3104 11.4996 47 11.9727 47 12.4986V18.7064C47 19.1353 47.2069 19.5362 47.5518 19.7762C47.8966 20.0161 48.3347 20.0638 48.7209 19.9033L60.7953 14.8767C61.0401 14.7732 61.246 14.5914 61.3835 14.358C61.5068 14.1535 61.5719 13.9175 61.5714 13.6767V6.31895C61.5739 6.0788 61.5107 5.8427 61.3893 5.6377Z" fill="#9966FF"/>
<path d="M61.3856 5.63965L61.4332 5.72565C61.5245 5.9081 61.5721 6.11105 61.5716 6.31745L61.5711 6.30615L61.5716 6.319V13.6768C61.5721 13.9175 61.507 14.1536 61.3836 14.358L61.3827 14.3586L50.9136 9.99915L50.915 9.9987L61.3856 5.63965Z" fill="url(#paint1_linear_9310_4582)"/>
</g>
<defs>
<linearGradient id="paint0_linear_9310_4582" x1="54.2857" y1="2.06296" x2="54.2857" y2="9.53032" gradientUnits="userSpaceOnUse">
<stop stop-color="#11EFE3"/>
<stop offset="1" stop-color="#21CFE0"/>
</linearGradient>
<linearGradient id="paint1_linear_9310_4582" x1="61.5716" y1="17.6697" x2="61.5716" y2="5.63965" gradientUnits="userSpaceOnUse">
<stop stop-color="#E3FFFF"/>
<stop offset="1" stop-color="#11EFE3"/>
</linearGradient>
<clipPath id="clip0_9310_4582">
<rect width="62" height="20" fill="white"/>
</clipPath>
</defs>
</svg>
