<svg xmlns="http://www.w3.org/2000/svg" viewBox="0 0 20 20">
	<path d="M6.26 20a5 5 0 0 1-1.09-.36 3.33 3.33 0 0 1 1.15-6.3A3.43 3.43 0 0 1 3.35 10c0-1.35.95-2.98 2.9-3.33a3.4 3.4 0 0 1-2.93-3.03A3.35 3.35 0 0 1 6.64 0h6.71c1.82 0 3.3 1.5 3.3 3.31 0 1.65-1.1 3-2.72 3.32a.91.91 0 0 0-.18.05 3.36 3.36 0 0 1 2.92 3.73 3.3 3.3 0 0 1-3.03 2.91 3.38 3.38 0 0 1-3.59-2.76v6.06a3.32 3.32 0 0 1-2.76 3.34c-.06 0-.11.02-.17.04h-.86Zm3.79-10.55a3.44 3.44 0 0 1 2.8-2.75H10.2c-.14 0-.15.08-.15.19v2.57Z" />
</svg>
