<svg xmlns="http://www.w3.org/2000/svg" viewBox="0 0 20 21">
	<path d="M0 10.2a9.92 9.92 0 0 1 3.61-6.9 9.74 9.74 0 0 1 4.44-2.1c1.03-.2 2.06-.24 3.1-.12a9.78 9.78 0 0 1 6.26 3.22 10.13 10.13 0 0 1 2.13 9.77 9.96 9.96 0 0 1-2.12 3.67 9.78 9.78 0 0 1-4.15 2.75c-.5.17-.83-.05-.83-.58V17.2c0-.62-.13-1.2-.57-1.67-.15-.16.06-.14.12-.15.38-.04.75-.1 1.11-.2a4.26 4.26 0 0 0 2.42-1.55c.4-.57.61-1.23.72-1.92a5.2 5.2 0 0 0-.1-2.5 3.45 3.45 0 0 0-.7-1.21c-.1-.12-.12-.22-.07-.37a3.4 3.4 0 0 0-.12-2.33c-.03-.1-.1-.12-.2-.13-.22-.01-.43.02-.64.1-.62.2-1.2.48-1.73.84a.44.44 0 0 1-.4.07 8.35 8.35 0 0 0-2.26-.3c-.76 0-1.53.08-2.27.28a.56.56 0 0 1-.5-.08c-.61-.4-1.27-.7-1.97-.88l-.08-.02c-.4-.06-.44-.04-.56.34a3.34 3.34 0 0 0-.02 2.16c.04.1.03.19-.05.27a4 4 0 0 0-.9 3.18c.06.63.18 1.23.42 1.81a3.6 3.6 0 0 0 2.1 2 6.1 6.1 0 0 0 1.73.43c.08.01.18 0 .21.07.04.08-.06.13-.11.2a2.1 2.1 0 0 0-.43.98c-.02.09-.04.17-.13.2-.62.27-1.62.4-2.24-.13-.22-.2-.4-.4-.55-.65-.3-.5-.7-.85-1.25-1.04a1.04 1.04 0 0 0-.57-.04c-.18.05-.2.1-.1.26.06.1.15.2.26.25.55.32.87.83 1.1 1.4.21.54.55.94 1.08 1.16.3.12.6.16.92.18.41.03.83.04 1.24-.05.15-.03.19.03.19.16v1.7c0 .4-.36.63-.76.49a10.16 10.16 0 0 1-6.75-8.45L0 11.91V10.2Z" />
</svg>
