<svg xmlns="http://www.w3.org/2000/svg" viewBox="0 0 20 20">
	<path d="M17.67 10.08v7.99c0 1.17-.27 1.44-1.41 1.43-3-.03-5.98-.2-8.97-.38-1.07-.07-2.14.01-3.21-.13-.86-.12-1.15-.4-1.2-1.3-.06-.96-.05-1.92-.11-2.88-.11-1.92-.12-3.84-.18-5.76-.08-2.1-.19-4.2-.25-6.3-.04-1.07.2-1.34 1.29-1.43 1.96-.15 3.92-.26 5.88-.39 1.13-.08 2.27-.15 3.4-.24.77-.05.86.02.84.8l-.02.4c-.02.3-.23.7.01.89.27.21.49-.19.73-.32.21-.12.37-.06.55.07.13.1.26.31.45.2.21-.13.12-.37.11-.56-.01-.38-.05-.76-.07-1.14-.01-.32.15-.47.48-.5 1.25-.14 1.68.22 1.68 1.5v8.05Zm-7.43 5.77c1.07.05 2.1-.15 2.94-.87 1.6-1.36 1.4-3.83-.43-5.23-.53-.4-1.13-.71-1.72-1.03-.5-.26-1-.51-1.36-.96a1.01 1.01 0 0 1-.1-1.2c.19-.32.51-.42.87-.38.46.05.71.33.82.76.02.11.07.22.07.33 0 .45.3.6.66.6.55-.01 1.1-.09 1.66-.17.28-.04.36-.27.37-.55a3.19 3.19 0 0 0-1.98-3.06 5.3 5.3 0 0 0-2.38-.28c-1.86.15-3 1.2-3.2 3.02-.15 1.33.45 2.35 1.51 3.08.72.5 1.49.92 2.23 1.37a2 2 0 0 1 .95 1.1c.2.66-.25 1.23-.95 1.17-.58-.06-.85-.4-.9-.98-.04-.33.02-.75-.47-.86a4.42 4.42 0 0 0-2-.04c-.23.06-.39.15-.45.42a3.26 3.26 0 0 0 1.4 3.2 4.4 4.4 0 0 0 2.46.55Z" />
</svg>
