<svg width="20" height="21" viewBox="0 0 20 21" fill="none" xmlns="http://www.w3.org/2000/svg">
	<rect y="0.605957" width="20" height="20" rx="5" fill="#7B8089"/>
	<path d="M9.12815 9.65768C6.82874 8.40251 4.33773 6.29561 3.37964 5.39906C5.21916 8.17837 9.01318 11.5255 10.6228 12.9077C6.94372 14.7008 3.34132 12.9077 2 11.8991C6.41485 18.0853 11.355 16.3429 13.8419 15.3732C14.4168 15.1491 15.2216 15.1491 15.7964 15.3732C16.0983 15.4909 16.6395 16.1577 16.9461 16.606C17.245 14.5837 16.2276 13.1484 15.6814 12.6835C16.8771 7.75251 13.1904 4.57722 11.1976 3.60596C13.382 6.18354 13.1138 9.39619 12.5773 10.5542C8.1624 7.50596 5.79401 5.3617 5.21916 4.72665C6.13892 6.34044 8.20839 8.68642 9.12815 9.65768Z" fill="white"/>
</svg>
