<svg width="12" height="13" viewBox="0 0 12 13" fill="none" xmlns="http://www.w3.org/2000/svg">
<mask id="path-1-outside-1_5426_63152" maskUnits="userSpaceOnUse" x="1" y="1.37158" width="10" height="10" fill="black">
<rect fill="white" x="1" y="1.37158" width="10" height="10"/>
<path fill-rule="evenodd" clip-rule="evenodd" d="M6 10.3716C8.20914 10.3716 10 8.58072 10 6.37158C10 4.16244 8.20914 2.37158 6 2.37158C3.79086 2.37158 2 4.16244 2 6.37158C2 8.58072 3.79086 10.3716 6 10.3716ZM6 8.37158C7.10457 8.37158 8 7.47615 8 6.37158C8 5.26701 7.10457 4.37158 6 4.37158C4.89543 4.37158 4 5.26701 4 6.37158C4 7.47615 4.89543 8.37158 6 8.37158Z"/>
</mask>
<path fill-rule="evenodd" clip-rule="evenodd" d="M6 10.3716C8.20914 10.3716 10 8.58072 10 6.37158C10 4.16244 8.20914 2.37158 6 2.37158C3.79086 2.37158 2 4.16244 2 6.37158C2 8.58072 3.79086 10.3716 6 10.3716ZM6 8.37158C7.10457 8.37158 8 7.47615 8 6.37158C8 5.26701 7.10457 4.37158 6 4.37158C4.89543 4.37158 4 5.26701 4 6.37158C4 7.47615 4.89543 8.37158 6 8.37158Z" fill="#2DCCFF"/>
<path d="M9.999 6.37158C9.999 8.58017 8.20859 10.3706 6 10.3706V10.3726C8.20969 10.3726 10.001 8.58127 10.001 6.37158H9.999ZM6 2.37258C8.20859 2.37258 9.999 4.163 9.999 6.37158H10.001C10.001 4.16189 8.20969 2.37058 6 2.37058V2.37258ZM2.001 6.37158C2.001 4.163 3.79141 2.37258 6 2.37258V2.37058C3.79031 2.37058 1.999 4.16189 1.999 6.37158H2.001ZM6 10.3706C3.79141 10.3706 2.001 8.58017 2.001 6.37158H1.999C1.999 8.58127 3.79031 10.3726 6 10.3726V10.3706ZM7.999 6.37158C7.999 7.4756 7.10402 8.37058 6 8.37058V8.37258C7.10512 8.37258 8.001 7.4767 8.001 6.37158H7.999ZM6 4.37258C7.10402 4.37258 7.999 5.26756 7.999 6.37158H8.001C8.001 5.26646 7.10512 4.37058 6 4.37058V4.37258ZM4.001 6.37158C4.001 5.26756 4.89598 4.37258 6 4.37258V4.37058C4.89488 4.37058 3.999 5.26646 3.999 6.37158H4.001ZM6 8.37058C4.89598 8.37058 4.001 7.4756 4.001 6.37158H3.999C3.999 7.4767 4.89488 8.37258 6 8.37258V8.37058Z" fill="#285766" mask="url(#path-1-outside-1_5426_63152)"/>
</svg>
