<svg width="790" height="250" viewBox="0 0 790 250" fill="none" xmlns="http://www.w3.org/2000/svg">
<rect width="790" height="250" rx="12" fill="#D9D9D9"/>
<rect x="538" y="109" width="163" height="36" rx="3" fill="#4DACFF"/>
<path fill-rule="evenodd" clip-rule="evenodd" d="M559.833 121.167H561.5V119.5H559.833V121.167ZM559.833 127.833H561.5V126.167H559.833V127.833ZM561.5 134.5H559.833V132.833H561.5V134.5ZM563.167 131.167H564.833V129.5H563.167V131.167ZM564.833 134.5H563.167V132.833H564.833V134.5ZM556.5 134.5H558.167V132.833H556.5V134.5ZM558.167 131.167H556.5V129.5H558.167V131.167ZM556.5 127.833H558.167V126.167H556.5V127.833ZM558.167 124.5H556.5V122.833H558.167V124.5ZM556.5 121.167H558.167V119.5H556.5V121.167ZM564.833 127.833H563.167V126.167H564.833V127.833ZM569.833 131.167H571.5V129.5H569.833V131.167ZM571.5 127.833H569.833V126.167H571.5V127.833ZM569.833 134.5H571.5V132.833H569.833V134.5ZM571.5 124.5H569.833V122.833H571.5V124.5ZM563.167 124.5H564.833V122.833H563.167V124.5ZM569.833 121.167V119.5H571.5V121.167H569.833ZM563.167 121.167H564.833V119.5H563.167V121.167ZM568.167 134.5H566.5V132.833H568.167V134.5ZM566.5 127.833H568.167V126.167H566.5V127.833ZM568.167 121.167H566.5V119.5H568.167V121.167Z" fill="#080C11"/>
<path d="M580.82 127.547V132H579.32V120.625H583.516C584.76 120.625 585.734 120.943 586.438 121.578C587.146 122.214 587.5 123.055 587.5 124.102C587.5 125.206 587.154 126.057 586.461 126.656C585.773 127.25 584.786 127.547 583.5 127.547H580.82ZM580.82 126.32H583.516C584.318 126.32 584.932 126.133 585.359 125.758C585.786 125.378 586 124.831 586 124.117C586 123.44 585.786 122.898 585.359 122.492C584.932 122.086 584.346 121.875 583.602 121.859H580.82V126.32ZM593.353 124.844C593.135 124.807 592.898 124.789 592.642 124.789C591.695 124.789 591.051 125.193 590.713 126V132H589.267V123.547H590.674L590.697 124.523C591.171 123.768 591.843 123.391 592.713 123.391C592.994 123.391 593.208 123.427 593.353 123.5V124.844ZM596.34 132H594.894V123.547H596.34V132ZM594.777 121.305C594.777 121.07 594.847 120.872 594.988 120.711C595.134 120.549 595.347 120.469 595.629 120.469C595.91 120.469 596.124 120.549 596.269 120.711C596.415 120.872 596.488 121.07 596.488 121.305C596.488 121.539 596.415 121.734 596.269 121.891C596.124 122.047 595.91 122.125 595.629 122.125C595.347 122.125 595.134 122.047 594.988 121.891C594.847 121.734 594.777 121.539 594.777 121.305ZM600.099 123.547L600.138 124.484C600.758 123.755 601.594 123.391 602.646 123.391C603.829 123.391 604.633 123.844 605.06 124.75C605.342 124.344 605.706 124.016 606.154 123.766C606.607 123.516 607.141 123.391 607.756 123.391C609.61 123.391 610.552 124.372 610.584 126.336V132H609.138V126.422C609.138 125.818 609 125.367 608.724 125.07C608.448 124.768 607.985 124.617 607.334 124.617C606.797 124.617 606.352 124.779 605.998 125.102C605.644 125.419 605.438 125.849 605.381 126.391V132H603.927V126.461C603.927 125.232 603.326 124.617 602.123 124.617C601.175 124.617 600.526 125.021 600.177 125.828V132H598.732V123.547H600.099ZM618.07 132C617.987 131.833 617.919 131.536 617.867 131.109C617.195 131.807 616.393 132.156 615.461 132.156C614.627 132.156 613.942 131.922 613.406 131.453C612.875 130.979 612.609 130.38 612.609 129.656C612.609 128.776 612.942 128.094 613.609 127.609C614.281 127.12 615.224 126.875 616.437 126.875H617.843V126.211C617.843 125.706 617.692 125.305 617.39 125.008C617.088 124.706 616.643 124.555 616.054 124.555C615.539 124.555 615.106 124.685 614.757 124.945C614.409 125.206 614.234 125.521 614.234 125.891H612.781C612.781 125.469 612.929 125.062 613.226 124.672C613.528 124.276 613.935 123.964 614.445 123.734C614.961 123.505 615.526 123.391 616.14 123.391C617.114 123.391 617.877 123.635 618.429 124.125C618.981 124.609 619.268 125.279 619.289 126.133V130.023C619.289 130.799 619.388 131.417 619.586 131.875V132H618.07ZM615.672 130.898C616.125 130.898 616.554 130.781 616.961 130.547C617.367 130.312 617.661 130.008 617.843 129.633V127.898H616.711C614.94 127.898 614.054 128.417 614.054 129.453C614.054 129.906 614.205 130.26 614.507 130.516C614.81 130.771 615.198 130.898 615.672 130.898ZM625.72 124.844C625.502 124.807 625.265 124.789 625.009 124.789C624.061 124.789 623.418 125.193 623.08 126V132H621.634V123.547H623.041L623.064 124.523C623.538 123.768 624.21 123.391 625.08 123.391C625.361 123.391 625.574 123.427 625.72 123.5V124.844ZM630.042 129.883L632.011 123.547H633.558L630.16 133.305C629.634 134.711 628.798 135.414 627.652 135.414L627.378 135.391L626.839 135.289V134.117L627.23 134.148C627.72 134.148 628.1 134.049 628.371 133.852C628.647 133.654 628.873 133.292 629.05 132.766L629.371 131.906L626.355 123.547H627.933L630.042 129.883ZM646.14 127.867C646.14 129.159 645.843 130.198 645.249 130.984C644.656 131.766 643.859 132.156 642.859 132.156C641.791 132.156 640.966 131.779 640.382 131.023L640.312 132H638.984V120H640.429V124.477C641.012 123.753 641.817 123.391 642.843 123.391C643.869 123.391 644.674 123.779 645.257 124.555C645.846 125.331 646.14 126.393 646.14 127.742V127.867ZM644.695 127.703C644.695 126.719 644.505 125.958 644.124 125.422C643.744 124.885 643.197 124.617 642.484 124.617C641.531 124.617 640.846 125.06 640.429 125.945V129.602C640.872 130.487 641.562 130.93 642.499 130.93C643.192 130.93 643.731 130.661 644.117 130.125C644.502 129.589 644.695 128.781 644.695 127.703ZM653.267 131.164C652.704 131.826 651.879 132.156 650.79 132.156C649.889 132.156 649.202 131.896 648.728 131.375C648.259 130.849 648.022 130.073 648.017 129.047V123.547H649.462V129.008C649.462 130.289 649.983 130.93 651.025 130.93C652.129 130.93 652.863 130.518 653.228 129.695V123.547H654.673V132H653.298L653.267 131.164ZM658.917 121.5V123.547H660.495V124.664H658.917V129.906C658.917 130.245 658.988 130.5 659.128 130.672C659.269 130.839 659.508 130.922 659.847 130.922C660.014 130.922 660.243 130.891 660.534 130.828V132C660.154 132.104 659.784 132.156 659.425 132.156C658.779 132.156 658.292 131.961 657.964 131.57C657.636 131.18 657.472 130.625 657.472 129.906V124.664H655.933V123.547H657.472V121.5H658.917ZM664.232 121.5V123.547H665.81V124.664H664.232V129.906C664.232 130.245 664.302 130.5 664.442 130.672C664.583 130.839 664.823 130.922 665.161 130.922C665.328 130.922 665.557 130.891 665.849 130.828V132C665.469 132.104 665.099 132.156 664.739 132.156C664.094 132.156 663.607 131.961 663.278 131.57C662.95 131.18 662.786 130.625 662.786 129.906V124.664H661.247V123.547H662.786V121.5H664.232ZM667.046 127.695C667.046 126.867 667.207 126.122 667.53 125.461C667.858 124.799 668.312 124.289 668.89 123.93C669.473 123.57 670.137 123.391 670.882 123.391C672.033 123.391 672.963 123.789 673.671 124.586C674.384 125.383 674.741 126.443 674.741 127.766V127.867C674.741 128.69 674.582 129.43 674.265 130.086C673.952 130.737 673.502 131.245 672.913 131.609C672.33 131.974 671.658 132.156 670.897 132.156C669.752 132.156 668.822 131.758 668.108 130.961C667.4 130.164 667.046 129.109 667.046 127.797V127.695ZM668.499 127.867C668.499 128.805 668.715 129.557 669.147 130.125C669.585 130.693 670.168 130.977 670.897 130.977C671.632 130.977 672.215 130.69 672.647 130.117C673.08 129.539 673.296 128.732 673.296 127.695C673.296 126.768 673.075 126.018 672.632 125.445C672.194 124.867 671.611 124.578 670.882 124.578C670.168 124.578 669.593 124.862 669.155 125.43C668.718 125.997 668.499 126.81 668.499 127.867ZM678.001 123.547L678.048 124.609C678.694 123.797 679.537 123.391 680.579 123.391C682.366 123.391 683.267 124.398 683.282 126.414V132H681.837V126.406C681.832 125.797 681.691 125.346 681.415 125.055C681.144 124.763 680.72 124.617 680.142 124.617C679.673 124.617 679.261 124.742 678.907 124.992C678.553 125.242 678.277 125.57 678.079 125.977V132H676.634V123.547H678.001Z" fill="#080C11"/>
<rect x="130" y="109" width="163" height="36" rx="3" fill="#4DACFF"/>
<path fill-rule="evenodd" clip-rule="evenodd" d="M151.833 121.167H153.5V119.5H151.833V121.167ZM151.833 127.833H153.5V126.167H151.833V127.833ZM153.5 134.5H151.833V132.833H153.5V134.5ZM155.167 131.167H156.833V129.5H155.167V131.167ZM156.833 134.5H155.167V132.833H156.833V134.5ZM148.5 134.5H150.167V132.833H148.5V134.5ZM150.167 131.167H148.5V129.5H150.167V131.167ZM148.5 127.833H150.167V126.167H148.5V127.833ZM150.167 124.5H148.5V122.833H150.167V124.5ZM148.5 121.167H150.167V119.5H148.5V121.167ZM156.833 127.833H155.167V126.167H156.833V127.833ZM161.833 131.167H163.5V129.5H161.833V131.167ZM163.5 127.833H161.833V126.167H163.5V127.833ZM161.833 134.5H163.5V132.833H161.833V134.5ZM163.5 124.5H161.833V122.833H163.5V124.5ZM155.167 124.5H156.833V122.833H155.167V124.5ZM161.833 121.167V119.5H163.5V121.167H161.833ZM155.167 121.167H156.833V119.5H155.167V121.167ZM160.167 134.5H158.5V132.833H160.167V134.5ZM158.5 127.833H160.167V126.167H158.5V127.833ZM160.167 121.167H158.5V119.5H160.167V121.167Z" fill="#080C11"/>
<path d="M172.82 127.547V132H171.32V120.625H175.516C176.76 120.625 177.734 120.943 178.438 121.578C179.146 122.214 179.5 123.055 179.5 124.102C179.5 125.206 179.154 126.057 178.461 126.656C177.773 127.25 176.786 127.547 175.5 127.547H172.82ZM172.82 126.32H175.516C176.318 126.32 176.932 126.133 177.359 125.758C177.786 125.378 178 124.831 178 124.117C178 123.44 177.786 122.898 177.359 122.492C176.932 122.086 176.346 121.875 175.602 121.859H172.82V126.32ZM185.353 124.844C185.135 124.807 184.898 124.789 184.642 124.789C183.695 124.789 183.051 125.193 182.713 126V132H181.267V123.547H182.674L182.697 124.523C183.171 123.768 183.843 123.391 184.713 123.391C184.994 123.391 185.208 123.427 185.353 123.5V124.844ZM188.34 132H186.894V123.547H188.34V132ZM186.777 121.305C186.777 121.07 186.847 120.872 186.988 120.711C187.134 120.549 187.347 120.469 187.629 120.469C187.91 120.469 188.124 120.549 188.269 120.711C188.415 120.872 188.488 121.07 188.488 121.305C188.488 121.539 188.415 121.734 188.269 121.891C188.124 122.047 187.91 122.125 187.629 122.125C187.347 122.125 187.134 122.047 186.988 121.891C186.847 121.734 186.777 121.539 186.777 121.305ZM192.099 123.547L192.138 124.484C192.758 123.755 193.594 123.391 194.646 123.391C195.829 123.391 196.633 123.844 197.06 124.75C197.342 124.344 197.706 124.016 198.154 123.766C198.607 123.516 199.141 123.391 199.756 123.391C201.61 123.391 202.552 124.372 202.584 126.336V132H201.138V126.422C201.138 125.818 201 125.367 200.724 125.07C200.448 124.768 199.985 124.617 199.334 124.617C198.797 124.617 198.352 124.779 197.998 125.102C197.644 125.419 197.438 125.849 197.381 126.391V132H195.927V126.461C195.927 125.232 195.326 124.617 194.123 124.617C193.175 124.617 192.526 125.021 192.177 125.828V132H190.732V123.547H192.099ZM210.07 132C209.987 131.833 209.919 131.536 209.867 131.109C209.195 131.807 208.393 132.156 207.461 132.156C206.627 132.156 205.942 131.922 205.406 131.453C204.875 130.979 204.609 130.38 204.609 129.656C204.609 128.776 204.942 128.094 205.609 127.609C206.281 127.12 207.224 126.875 208.437 126.875H209.843V126.211C209.843 125.706 209.692 125.305 209.39 125.008C209.088 124.706 208.643 124.555 208.054 124.555C207.539 124.555 207.106 124.685 206.757 124.945C206.409 125.206 206.234 125.521 206.234 125.891H204.781C204.781 125.469 204.929 125.062 205.226 124.672C205.528 124.276 205.935 123.964 206.445 123.734C206.961 123.505 207.526 123.391 208.14 123.391C209.114 123.391 209.877 123.635 210.429 124.125C210.981 124.609 211.268 125.279 211.289 126.133V130.023C211.289 130.799 211.388 131.417 211.586 131.875V132H210.07ZM207.672 130.898C208.125 130.898 208.554 130.781 208.961 130.547C209.367 130.312 209.661 130.008 209.843 129.633V127.898H208.711C206.94 127.898 206.054 128.417 206.054 129.453C206.054 129.906 206.205 130.26 206.507 130.516C206.81 130.771 207.198 130.898 207.672 130.898ZM217.72 124.844C217.502 124.807 217.265 124.789 217.009 124.789C216.061 124.789 215.418 125.193 215.08 126V132H213.634V123.547H215.041L215.064 124.523C215.538 123.768 216.21 123.391 217.08 123.391C217.361 123.391 217.574 123.427 217.72 123.5V124.844ZM222.042 129.883L224.011 123.547H225.558L222.16 133.305C221.634 134.711 220.798 135.414 219.652 135.414L219.378 135.391L218.839 135.289V134.117L219.23 134.148C219.72 134.148 220.1 134.049 220.371 133.852C220.647 133.654 220.873 133.292 221.05 132.766L221.371 131.906L218.355 123.547H219.933L222.042 129.883ZM238.14 127.867C238.14 129.159 237.843 130.198 237.249 130.984C236.656 131.766 235.859 132.156 234.859 132.156C233.791 132.156 232.966 131.779 232.382 131.023L232.312 132H230.984V120H232.429V124.477C233.012 123.753 233.817 123.391 234.843 123.391C235.869 123.391 236.674 123.779 237.257 124.555C237.846 125.331 238.14 126.393 238.14 127.742V127.867ZM236.695 127.703C236.695 126.719 236.505 125.958 236.124 125.422C235.744 124.885 235.197 124.617 234.484 124.617C233.531 124.617 232.846 125.06 232.429 125.945V129.602C232.872 130.487 233.562 130.93 234.499 130.93C235.192 130.93 235.731 130.661 236.117 130.125C236.502 129.589 236.695 128.781 236.695 127.703ZM245.267 131.164C244.704 131.826 243.879 132.156 242.79 132.156C241.889 132.156 241.202 131.896 240.728 131.375C240.259 130.849 240.022 130.073 240.017 129.047V123.547H241.462V129.008C241.462 130.289 241.983 130.93 243.025 130.93C244.129 130.93 244.863 130.518 245.228 129.695V123.547H246.673V132H245.298L245.267 131.164ZM250.917 121.5V123.547H252.495V124.664H250.917V129.906C250.917 130.245 250.988 130.5 251.128 130.672C251.269 130.839 251.508 130.922 251.847 130.922C252.014 130.922 252.243 130.891 252.534 130.828V132C252.154 132.104 251.784 132.156 251.425 132.156C250.779 132.156 250.292 131.961 249.964 131.57C249.636 131.18 249.472 130.625 249.472 129.906V124.664H247.933V123.547H249.472V121.5H250.917ZM256.232 121.5V123.547H257.81V124.664H256.232V129.906C256.232 130.245 256.302 130.5 256.442 130.672C256.583 130.839 256.823 130.922 257.161 130.922C257.328 130.922 257.557 130.891 257.849 130.828V132C257.469 132.104 257.099 132.156 256.739 132.156C256.094 132.156 255.607 131.961 255.278 131.57C254.95 131.18 254.786 130.625 254.786 129.906V124.664H253.247V123.547H254.786V121.5H256.232ZM259.046 127.695C259.046 126.867 259.207 126.122 259.53 125.461C259.858 124.799 260.312 124.289 260.89 123.93C261.473 123.57 262.137 123.391 262.882 123.391C264.033 123.391 264.963 123.789 265.671 124.586C266.384 125.383 266.741 126.443 266.741 127.766V127.867C266.741 128.69 266.582 129.43 266.265 130.086C265.952 130.737 265.502 131.245 264.913 131.609C264.33 131.974 263.658 132.156 262.897 132.156C261.752 132.156 260.822 131.758 260.108 130.961C259.4 130.164 259.046 129.109 259.046 127.797V127.695ZM260.499 127.867C260.499 128.805 260.715 129.557 261.147 130.125C261.585 130.693 262.168 130.977 262.897 130.977C263.632 130.977 264.215 130.69 264.647 130.117C265.08 129.539 265.296 128.732 265.296 127.695C265.296 126.768 265.075 126.018 264.632 125.445C264.194 124.867 263.611 124.578 262.882 124.578C262.168 124.578 261.593 124.862 261.155 125.43C260.718 125.997 260.499 126.81 260.499 127.867ZM270.001 123.547L270.048 124.609C270.694 123.797 271.537 123.391 272.579 123.391C274.366 123.391 275.267 124.398 275.282 126.414V132H273.837V126.406C273.832 125.797 273.691 125.346 273.415 125.055C273.144 124.763 272.72 124.617 272.142 124.617C271.673 124.617 271.261 124.742 270.907 124.992C270.553 125.242 270.277 125.57 270.079 125.977V132H268.634V123.547H270.001Z" fill="#080C11"/>
<rect x="494" y="111" width="23" height="32" rx="3" fill="black"/>
<rect x="86" y="111" width="23" height="32" rx="3" fill="black"/>
<rect x="608" y="54" width="23" height="32" rx="3" fill="black"/>
<rect x="200" y="54" width="23" height="32" rx="3" fill="black"/>
<rect x="552" y="164" width="23" height="32" rx="3" fill="black"/>
<path d="M506.703 132H505.25V122.367L502.336 123.438V122.125L506.477 120.57H506.703V132Z" fill="white"/>
<path d="M98.7031 132H97.25V122.367L94.3359 123.438V122.125L98.4766 120.57H98.7031V132Z" fill="white"/>
<path d="M623.406 75H615.953V73.9609L619.891 69.5859C620.474 68.9245 620.875 68.388 621.094 67.9766C621.318 67.5599 621.43 67.1302 621.43 66.6875C621.43 66.0938 621.25 65.6068 620.891 65.2266C620.531 64.8464 620.052 64.6562 619.453 64.6562C618.734 64.6562 618.174 64.862 617.773 65.2734C617.378 65.6797 617.18 66.2474 617.18 66.9766H615.734C615.734 65.9297 616.07 65.0833 616.742 64.4375C617.419 63.7917 618.323 63.4688 619.453 63.4688C620.51 63.4688 621.346 63.7474 621.961 64.3047C622.576 64.8568 622.883 65.5938 622.883 66.5156C622.883 67.6354 622.169 68.9688 620.742 70.5156L617.695 73.8203H623.406V75Z" fill="white"/>
<path d="M215.406 75H207.953V73.9609L211.891 69.5859C212.474 68.9245 212.875 68.388 213.094 67.9766C213.318 67.5599 213.43 67.1302 213.43 66.6875C213.43 66.0938 213.25 65.6068 212.891 65.2266C212.531 64.8464 212.052 64.6562 211.453 64.6562C210.734 64.6562 210.174 64.862 209.773 65.2734C209.378 65.6797 209.18 66.2474 209.18 66.9766H207.734C207.734 65.9297 208.07 65.0833 208.742 64.4375C209.419 63.7917 210.323 63.4688 211.453 63.4688C212.51 63.4688 213.346 63.7474 213.961 64.3047C214.576 64.8568 214.883 65.5938 214.883 66.5156C214.883 67.6354 214.169 68.9688 212.742 70.5156L209.695 73.8203H215.406V75Z" fill="white"/>
<path d="M562.055 178.609H563.141C563.823 178.599 564.359 178.419 564.75 178.07C565.141 177.721 565.336 177.25 565.336 176.656C565.336 175.323 564.672 174.656 563.344 174.656C562.719 174.656 562.219 174.836 561.844 175.195C561.474 175.549 561.289 176.021 561.289 176.609H559.844C559.844 175.708 560.172 174.961 560.828 174.367C561.49 173.768 562.328 173.469 563.344 173.469C564.417 173.469 565.258 173.753 565.867 174.32C566.477 174.888 566.781 175.677 566.781 176.688C566.781 177.182 566.62 177.661 566.297 178.125C565.979 178.589 565.544 178.935 564.992 179.164C565.617 179.362 566.099 179.69 566.438 180.148C566.781 180.607 566.953 181.167 566.953 181.828C566.953 182.849 566.62 183.659 565.953 184.258C565.286 184.857 564.419 185.156 563.352 185.156C562.284 185.156 561.414 184.867 560.742 184.289C560.076 183.711 559.742 182.948 559.742 182H561.195C561.195 182.599 561.391 183.078 561.781 183.438C562.172 183.797 562.695 183.977 563.352 183.977C564.049 183.977 564.583 183.794 564.953 183.43C565.323 183.065 565.508 182.542 565.508 181.859C565.508 181.198 565.305 180.69 564.898 180.336C564.492 179.982 563.906 179.799 563.141 179.789H562.055V178.609Z" fill="white"/>
</svg>
