<svg width="163" height="28" viewBox="0 0 163 28" fill="none" xmlns="http://www.w3.org/2000/svg">
<rect width="163" height="28" rx="3" fill="#4DACFF"/>
<path fill-rule="evenodd" clip-rule="evenodd" d="M21.8333 8.16667H23.5V6.5H21.8333V8.16667ZM21.8333 14.8333H23.5V13.1667H21.8333V14.8333ZM23.5 21.5H21.8333V19.8333H23.5V21.5ZM25.1667 18.1667H26.8333V16.5H25.1667V18.1667ZM26.8333 21.5H25.1667V19.8333H26.8333V21.5ZM18.5 21.5H20.1667V19.8333H18.5V21.5ZM20.1667 18.1667H18.5V16.5H20.1667V18.1667ZM18.5 14.8333H20.1667V13.1667H18.5V14.8333ZM20.1667 11.5H18.5V9.83333H20.1667V11.5ZM18.5 8.16667H20.1667V6.5H18.5V8.16667ZM26.8333 14.8333H25.1667V13.1667H26.8333V14.8333ZM31.8333 18.1667H33.5V16.5H31.8333V18.1667ZM33.5 14.8333H31.8333V13.1667H33.5V14.8333ZM31.8333 21.5H33.5V19.8333H31.8333V21.5ZM33.5 11.5H31.8333V9.83333H33.5V11.5ZM25.1667 11.5H26.8333V9.83333H25.1667V11.5ZM31.8333 8.16667V6.5H33.5V8.16667H31.8333ZM25.1667 8.16667H26.8333V6.5H25.1667V8.16667ZM30.1667 21.5H28.5V19.8333H30.1667V21.5ZM28.5 14.8333H30.1667V13.1667H28.5V14.8333ZM30.1667 8.16667H28.5V6.5H30.1667V8.16667Z" fill="#080C11"/>
<path d="M42.8203 14.5469V19H41.3203V7.625H45.5156C46.7604 7.625 47.7344 7.94271 48.4375 8.57812C49.1458 9.21354 49.5 10.0547 49.5 11.1016C49.5 12.2057 49.1536 13.0573 48.4609 13.6562C47.7734 14.25 46.7865 14.5469 45.5 14.5469H42.8203ZM42.8203 13.3203H45.5156C46.3177 13.3203 46.9323 13.1328 47.3594 12.7578C47.7865 12.3776 48 11.8307 48 11.1172C48 10.4401 47.7865 9.89844 47.3594 9.49219C46.9323 9.08594 46.3464 8.875 45.6016 8.85938H42.8203V13.3203ZM55.3534 11.8438C55.1347 11.8073 54.8977 11.7891 54.6425 11.7891C53.6946 11.7891 53.0514 12.1927 52.7128 13V19H51.2675V10.5469H52.6737L52.6972 11.5234C53.1711 10.7682 53.843 10.3906 54.7128 10.3906C54.9941 10.3906 55.2076 10.4271 55.3534 10.5V11.8438ZM58.3397 19H56.8944V10.5469H58.3397V19ZM56.7772 8.30469C56.7772 8.07031 56.8475 7.8724 56.9881 7.71094C57.134 7.54948 57.3475 7.46875 57.6287 7.46875C57.91 7.46875 58.1235 7.54948 58.2694 7.71094C58.4152 7.8724 58.4881 8.07031 58.4881 8.30469C58.4881 8.53906 58.4152 8.73438 58.2694 8.89062C58.1235 9.04688 57.91 9.125 57.6287 9.125C57.3475 9.125 57.134 9.04688 56.9881 8.89062C56.8475 8.73438 56.7772 8.53906 56.7772 8.30469ZM62.0994 10.5469L62.1384 11.4844C62.7582 10.7552 63.5942 10.3906 64.6462 10.3906C65.8285 10.3906 66.6332 10.8438 67.0603 11.75C67.3416 11.3438 67.7061 11.0156 68.1541 10.7656C68.6072 10.5156 69.141 10.3906 69.7556 10.3906C71.6098 10.3906 72.5525 11.3724 72.5837 13.3359V19H71.1384V13.4219C71.1384 12.8177 71.0004 12.3672 70.7244 12.0703C70.4483 11.7682 69.9848 11.6172 69.3337 11.6172C68.7973 11.6172 68.352 11.7786 67.9978 12.1016C67.6436 12.4193 67.4379 12.849 67.3806 13.3906V19H65.9275V13.4609C65.9275 12.2318 65.3259 11.6172 64.1228 11.6172C63.1749 11.6172 62.5265 12.0208 62.1775 12.8281V19H60.7322V10.5469H62.0994ZM80.07 19C79.9867 18.8333 79.919 18.5365 79.8669 18.1094C79.195 18.8073 78.3929 19.1562 77.4606 19.1562C76.6273 19.1562 75.9424 18.9219 75.4059 18.4531C74.8747 17.9792 74.6091 17.3802 74.6091 16.6562C74.6091 15.776 74.9424 15.0938 75.6091 14.6094C76.2809 14.1198 77.2236 13.875 78.4372 13.875H79.8434V13.2109C79.8434 12.7057 79.6924 12.3047 79.3903 12.0078C79.0882 11.7057 78.6429 11.5547 78.0544 11.5547C77.5387 11.5547 77.1065 11.6849 76.7575 11.9453C76.4085 12.2057 76.2341 12.5208 76.2341 12.8906H74.7809C74.7809 12.4688 74.9294 12.0625 75.2262 11.6719C75.5283 11.276 75.9346 10.9635 76.445 10.7344C76.9606 10.5052 77.5257 10.3906 78.1403 10.3906C79.1143 10.3906 79.8773 10.6354 80.4294 11.125C80.9815 11.6094 81.2679 12.2786 81.2887 13.1328V17.0234C81.2887 17.7995 81.3877 18.4167 81.5856 18.875V19H80.07ZM77.6716 17.8984C78.1247 17.8984 78.5544 17.7812 78.9606 17.5469C79.3669 17.3125 79.6611 17.0078 79.8434 16.6328V14.8984H78.7106C76.9398 14.8984 76.0544 15.4167 76.0544 16.4531C76.0544 16.9062 76.2054 17.2604 76.5075 17.5156C76.8096 17.7708 77.1976 17.8984 77.6716 17.8984ZM87.7203 11.8438C87.5016 11.8073 87.2646 11.7891 87.0094 11.7891C86.0615 11.7891 85.4182 12.1927 85.0797 13V19H83.6344V10.5469H85.0406L85.0641 11.5234C85.538 10.7682 86.2099 10.3906 87.0797 10.3906C87.3609 10.3906 87.5745 10.4271 87.7203 10.5V11.8438ZM92.0425 16.8828L94.0112 10.5469H95.5581L92.1597 20.3047C91.6336 21.7109 90.7977 22.4141 89.6519 22.4141L89.3784 22.3906L88.8394 22.2891V21.1172L89.23 21.1484C89.7196 21.1484 90.0998 21.0495 90.3706 20.8516C90.6467 20.6536 90.8732 20.2917 91.0503 19.7656L91.3706 18.9062L88.355 10.5469H89.9331L92.0425 16.8828ZM108.14 14.8672C108.14 16.1589 107.843 17.1979 107.249 17.9844C106.656 18.7656 105.859 19.1562 104.859 19.1562C103.791 19.1562 102.966 18.7786 102.382 18.0234L102.312 19H100.984V7H102.429V11.4766C103.012 10.7526 103.817 10.3906 104.843 10.3906C105.869 10.3906 106.674 10.7786 107.257 11.5547C107.846 12.3307 108.14 13.3932 108.14 14.7422V14.8672ZM106.695 14.7031C106.695 13.7188 106.505 12.9583 106.124 12.4219C105.744 11.8854 105.197 11.6172 104.484 11.6172C103.531 11.6172 102.846 12.0599 102.429 12.9453V16.6016C102.872 17.487 103.562 17.9297 104.499 17.9297C105.192 17.9297 105.731 17.6615 106.117 17.125C106.502 16.5885 106.695 15.7812 106.695 14.7031ZM115.267 18.1641C114.704 18.8255 113.879 19.1562 112.79 19.1562C111.889 19.1562 111.202 18.8958 110.728 18.375C110.259 17.849 110.022 17.0729 110.017 16.0469V10.5469H111.462V16.0078C111.462 17.2891 111.983 17.9297 113.025 17.9297C114.129 17.9297 114.863 17.5182 115.228 16.6953V10.5469H116.673V19H115.298L115.267 18.1641ZM120.917 8.5V10.5469H122.495V11.6641H120.917V16.9062C120.917 17.2448 120.988 17.5 121.128 17.6719C121.269 17.8385 121.508 17.9219 121.847 17.9219C122.014 17.9219 122.243 17.8906 122.534 17.8281V19C122.154 19.1042 121.784 19.1562 121.425 19.1562C120.779 19.1562 120.292 18.9609 119.964 18.5703C119.636 18.1797 119.472 17.625 119.472 16.9062V11.6641H117.933V10.5469H119.472V8.5H120.917ZM126.232 8.5V10.5469H127.81V11.6641H126.232V16.9062C126.232 17.2448 126.302 17.5 126.442 17.6719C126.583 17.8385 126.823 17.9219 127.161 17.9219C127.328 17.9219 127.557 17.8906 127.849 17.8281V19C127.469 19.1042 127.099 19.1562 126.739 19.1562C126.094 19.1562 125.607 18.9609 125.278 18.5703C124.95 18.1797 124.786 17.625 124.786 16.9062V11.6641H123.247V10.5469H124.786V8.5H126.232ZM129.046 14.6953C129.046 13.8672 129.207 13.1224 129.53 12.4609C129.858 11.7995 130.312 11.2891 130.89 10.9297C131.473 10.5703 132.137 10.3906 132.882 10.3906C134.033 10.3906 134.963 10.7891 135.671 11.5859C136.384 12.3828 136.741 13.4427 136.741 14.7656V14.8672C136.741 15.6901 136.582 16.4297 136.265 17.0859C135.952 17.737 135.502 18.2448 134.913 18.6094C134.33 18.974 133.658 19.1562 132.897 19.1562C131.752 19.1562 130.822 18.7578 130.108 17.9609C129.4 17.1641 129.046 16.1094 129.046 14.7969V14.6953ZM130.499 14.8672C130.499 15.8047 130.715 16.5573 131.147 17.125C131.585 17.6927 132.168 17.9766 132.897 17.9766C133.632 17.9766 134.215 17.6901 134.647 17.1172C135.08 16.5391 135.296 15.7318 135.296 14.6953C135.296 13.7682 135.075 13.0182 134.632 12.4453C134.194 11.8672 133.611 11.5781 132.882 11.5781C132.168 11.5781 131.593 11.862 131.155 12.4297C130.718 12.9974 130.499 13.8099 130.499 14.8672ZM140.001 10.5469L140.048 11.6094C140.694 10.7969 141.537 10.3906 142.579 10.3906C144.366 10.3906 145.267 11.3984 145.282 13.4141V19H143.837V13.4062C143.832 12.7969 143.691 12.3464 143.415 12.0547C143.144 11.763 142.72 11.6172 142.142 11.6172C141.673 11.6172 141.261 11.7422 140.907 11.9922C140.553 12.2422 140.277 12.5703 140.079 12.9766V19H138.634V10.5469H140.001Z" fill="#080C11"/>
</svg>
