<svg width="28" height="28" viewBox="0 0 28 28" fill="none" xmlns="http://www.w3.org/2000/svg">
<rect width="28" height="28" rx="3" fill="#4DACFF"/>
<path fill-rule="evenodd" clip-rule="evenodd" d="M9.83333 8.16667H11.5V6.5H9.83333V8.16667ZM9.83333 14.8333H11.5V13.1667H9.83333V14.8333ZM11.5 21.5H9.83333V19.8333H11.5V21.5ZM13.1667 18.1667H14.8333V16.5H13.1667V18.1667ZM14.8333 21.5H13.1667V19.8333H14.8333V21.5ZM6.5 21.5H8.16667V19.8333H6.5V21.5ZM8.16667 18.1667H6.5V16.5H8.16667V18.1667ZM6.5 14.8333H8.16667V13.1667H6.5V14.8333ZM8.16667 11.5H6.5V9.83333H8.16667V11.5ZM6.5 8.16667H8.16667V6.5H6.5V8.16667ZM14.8333 14.8333H13.1667V13.1667H14.8333V14.8333ZM19.8333 18.1667H21.5V16.5H19.8333V18.1667ZM21.5 14.8333H19.8333V13.1667H21.5V14.8333ZM19.8333 21.5H21.5V19.8333H19.8333V21.5ZM21.5 11.5H19.8333V9.83333H21.5V11.5ZM13.1667 11.5H14.8333V9.83333H13.1667V11.5ZM19.8333 8.16667V6.5H21.5V8.16667H19.8333ZM13.1667 8.16667H14.8333V6.5H13.1667V8.16667ZM18.1667 21.5H16.5V19.8333H18.1667V21.5ZM16.5 14.8333H18.1667V13.1667H16.5V14.8333ZM18.1667 8.16667H16.5V6.5H18.1667V8.16667Z" fill="#080C11"/>
</svg>
