<svg width="139" height="44" viewBox="0 0 139 44" fill="none" xmlns="http://www.w3.org/2000/svg">
<rect width="139" height="44" rx="3" fill="#4DACFF"/>
<path d="M19.1362 22.5469V27H17.6362V15.625H21.8316C23.0764 15.625 24.0503 15.9427 24.7534 16.5781C25.4618 17.2135 25.8159 18.0547 25.8159 19.1016C25.8159 20.2057 25.4696 21.0573 24.7769 21.6562C24.0894 22.25 23.1024 22.5469 21.8159 22.5469H19.1362ZM19.1362 21.3203H21.8316C22.6336 21.3203 23.2482 21.1328 23.6753 20.7578C24.1024 20.3776 24.3159 19.8307 24.3159 19.1172C24.3159 18.4401 24.1024 17.8984 23.6753 17.4922C23.2482 17.0859 22.6623 16.875 21.9175 16.8594H19.1362V21.3203ZM31.6694 19.8438C31.4506 19.8073 31.2136 19.7891 30.9584 19.7891C30.0105 19.7891 29.3673 20.1927 29.0287 21V27H27.5834V18.5469H28.9897L29.0131 19.5234C29.4871 18.7682 30.159 18.3906 31.0287 18.3906C31.31 18.3906 31.5235 18.4271 31.6694 18.5V19.8438ZM34.6556 27H33.2103V18.5469H34.6556V27ZM33.0931 16.3047C33.0931 16.0703 33.1634 15.8724 33.3041 15.7109C33.4499 15.5495 33.6634 15.4688 33.9447 15.4688C34.2259 15.4688 34.4395 15.5495 34.5853 15.7109C34.7311 15.8724 34.8041 16.0703 34.8041 16.3047C34.8041 16.5391 34.7311 16.7344 34.5853 16.8906C34.4395 17.0469 34.2259 17.125 33.9447 17.125C33.6634 17.125 33.4499 17.0469 33.3041 16.8906C33.1634 16.7344 33.0931 16.5391 33.0931 16.3047ZM38.4153 18.5469L38.4544 19.4844C39.0742 18.7552 39.9101 18.3906 40.9622 18.3906C42.1445 18.3906 42.9492 18.8438 43.3762 19.75C43.6575 19.3438 44.0221 19.0156 44.47 18.7656C44.9231 18.5156 45.457 18.3906 46.0716 18.3906C47.9257 18.3906 48.8684 19.3724 48.8997 21.3359V27H47.4544V21.4219C47.4544 20.8177 47.3164 20.3672 47.0403 20.0703C46.7643 19.7682 46.3007 19.6172 45.6497 19.6172C45.1132 19.6172 44.6679 19.7786 44.3137 20.1016C43.9596 20.4193 43.7539 20.849 43.6966 21.3906V27H42.2434V21.4609C42.2434 20.2318 41.6419 19.6172 40.4387 19.6172C39.4908 19.6172 38.8424 20.0208 38.4934 20.8281V27H37.0481V18.5469H38.4153ZM56.3859 27C56.3026 26.8333 56.2349 26.5365 56.1828 26.1094C55.5109 26.8073 54.7089 27.1562 53.7766 27.1562C52.9432 27.1562 52.2583 26.9219 51.7219 26.4531C51.1906 25.9792 50.925 25.3802 50.925 24.6562C50.925 23.776 51.2583 23.0938 51.925 22.6094C52.5969 22.1198 53.5396 21.875 54.7531 21.875H56.1594V21.2109C56.1594 20.7057 56.0083 20.3047 55.7062 20.0078C55.4042 19.7057 54.9589 19.5547 54.3703 19.5547C53.8547 19.5547 53.4224 19.6849 53.0734 19.9453C52.7245 20.2057 52.55 20.5208 52.55 20.8906H51.0969C51.0969 20.4688 51.2453 20.0625 51.5422 19.6719C51.8443 19.276 52.2505 18.9635 52.7609 18.7344C53.2766 18.5052 53.8417 18.3906 54.4562 18.3906C55.4302 18.3906 56.1932 18.6354 56.7453 19.125C57.2974 19.6094 57.5839 20.2786 57.6047 21.1328V25.0234C57.6047 25.7995 57.7036 26.4167 57.9016 26.875V27H56.3859ZM53.9875 25.8984C54.4406 25.8984 54.8703 25.7812 55.2766 25.5469C55.6828 25.3125 55.9771 25.0078 56.1594 24.6328V22.8984H55.0266C53.2557 22.8984 52.3703 23.4167 52.3703 24.4531C52.3703 24.9062 52.5214 25.2604 52.8234 25.5156C53.1255 25.7708 53.5135 25.8984 53.9875 25.8984ZM64.0363 19.8438C63.8175 19.8073 63.5805 19.7891 63.3253 19.7891C62.3774 19.7891 61.7342 20.1927 61.3956 21V27H59.9503V18.5469H61.3566L61.38 19.5234C61.854 18.7682 62.5258 18.3906 63.3956 18.3906C63.6769 18.3906 63.8904 18.4271 64.0363 18.5V19.8438ZM68.3584 24.8828L70.3272 18.5469H71.8741L68.4756 28.3047C67.9496 29.7109 67.1136 30.4141 65.9678 30.4141L65.6944 30.3906L65.1553 30.2891V29.1172L65.5459 29.1484C66.0355 29.1484 66.4157 29.0495 66.6866 28.8516C66.9626 28.6536 67.1892 28.2917 67.3662 27.7656L67.6866 26.9062L64.6709 18.5469H66.2491L68.3584 24.8828ZM84.4559 22.8672C84.4559 24.1589 84.1591 25.1979 83.5653 25.9844C82.9716 26.7656 82.1747 27.1562 81.1747 27.1562C80.107 27.1562 79.2815 26.7786 78.6981 26.0234L78.6278 27H77.2997V15H78.745V19.4766C79.3283 18.7526 80.133 18.3906 81.1591 18.3906C82.1851 18.3906 82.9898 18.7786 83.5731 19.5547C84.1617 20.3307 84.4559 21.3932 84.4559 22.7422V22.8672ZM83.0106 22.7031C83.0106 21.7188 82.8205 20.9583 82.4403 20.4219C82.0601 19.8854 81.5132 19.6172 80.7997 19.6172C79.8466 19.6172 79.1617 20.0599 78.745 20.9453V24.6016C79.1877 25.487 79.8778 25.9297 80.8153 25.9297C81.508 25.9297 82.0471 25.6615 82.4325 25.125C82.8179 24.5885 83.0106 23.7812 83.0106 22.7031ZM91.5828 26.1641C91.0203 26.8255 90.1948 27.1562 89.1062 27.1562C88.2052 27.1562 87.5177 26.8958 87.0437 26.375C86.575 25.849 86.338 25.0729 86.3328 24.0469V18.5469H87.7781V24.0078C87.7781 25.2891 88.299 25.9297 89.3406 25.9297C90.4448 25.9297 91.1792 25.5182 91.5437 24.6953V18.5469H92.9891V27H91.6141L91.5828 26.1641ZM97.2331 16.5V18.5469H98.8112V19.6641H97.2331V24.9062C97.2331 25.2448 97.3034 25.5 97.4441 25.6719C97.5847 25.8385 97.8243 25.9219 98.1628 25.9219C98.3295 25.9219 98.5586 25.8906 98.8503 25.8281V27C98.4701 27.1042 98.1003 27.1562 97.7409 27.1562C97.0951 27.1562 96.6081 26.9609 96.28 26.5703C95.9519 26.1797 95.7878 25.625 95.7878 24.9062V19.6641H94.2487V18.5469H95.7878V16.5H97.2331ZM102.548 16.5V18.5469H104.126V19.6641H102.548V24.9062C102.548 25.2448 102.618 25.5 102.758 25.6719C102.899 25.8385 103.139 25.9219 103.477 25.9219C103.644 25.9219 103.873 25.8906 104.165 25.8281V27C103.784 27.1042 103.415 27.1562 103.055 27.1562C102.409 27.1562 101.923 26.9609 101.594 26.5703C101.266 26.1797 101.102 25.625 101.102 24.9062V19.6641H99.5631V18.5469H101.102V16.5H102.548ZM105.362 22.6953C105.362 21.8672 105.523 21.1224 105.846 20.4609C106.174 19.7995 106.628 19.2891 107.206 18.9297C107.789 18.5703 108.453 18.3906 109.198 18.3906C110.349 18.3906 111.279 18.7891 111.987 19.5859C112.7 20.3828 113.057 21.4427 113.057 22.7656V22.8672C113.057 23.6901 112.898 24.4297 112.581 25.0859C112.268 25.737 111.818 26.2448 111.229 26.6094C110.646 26.974 109.974 27.1562 109.213 27.1562C108.068 27.1562 107.138 26.7578 106.424 25.9609C105.716 25.1641 105.362 24.1094 105.362 22.7969V22.6953ZM106.815 22.8672C106.815 23.8047 107.031 24.5573 107.463 25.125C107.901 25.6927 108.484 25.9766 109.213 25.9766C109.948 25.9766 110.531 25.6901 110.963 25.1172C111.396 24.5391 111.612 23.7318 111.612 22.6953C111.612 21.7682 111.391 21.0182 110.948 20.4453C110.51 19.8672 109.927 19.5781 109.198 19.5781C108.484 19.5781 107.909 19.862 107.471 20.4297C107.034 20.9974 106.815 21.8099 106.815 22.8672ZM116.317 18.5469L116.364 19.6094C117.01 18.7969 117.853 18.3906 118.895 18.3906C120.681 18.3906 121.583 19.3984 121.598 21.4141V27H120.153V21.4062C120.148 20.7969 120.007 20.3464 119.731 20.0547C119.46 19.763 119.036 19.6172 118.458 19.6172C117.989 19.6172 117.577 19.7422 117.223 19.9922C116.869 20.2422 116.593 20.5703 116.395 20.9766V27H114.95V18.5469H116.317Z" fill="#080C11"/>
</svg>
