<svg width="139" height="36" viewBox="0 0 139 36" fill="none" xmlns="http://www.w3.org/2000/svg">
<rect x="0.5" width="138" height="36" rx="3" fill="#4DACFF"/>
<path d="M19.1362 18.5469V23H17.6362V11.625H21.8316C23.0764 11.625 24.0503 11.9427 24.7534 12.5781C25.4618 13.2135 25.8159 14.0547 25.8159 15.1016C25.8159 16.2057 25.4696 17.0573 24.7769 17.6562C24.0894 18.25 23.1024 18.5469 21.8159 18.5469H19.1362ZM19.1362 17.3203H21.8316C22.6336 17.3203 23.2482 17.1328 23.6753 16.7578C24.1024 16.3776 24.3159 15.8307 24.3159 15.1172C24.3159 14.4401 24.1024 13.8984 23.6753 13.4922C23.2482 13.0859 22.6623 12.875 21.9175 12.8594H19.1362V17.3203ZM31.6694 15.8438C31.4506 15.8073 31.2136 15.7891 30.9584 15.7891C30.0105 15.7891 29.3673 16.1927 29.0287 17V23H27.5834V14.5469H28.9897L29.0131 15.5234C29.4871 14.7682 30.159 14.3906 31.0287 14.3906C31.31 14.3906 31.5235 14.4271 31.6694 14.5V15.8438ZM34.6556 23H33.2103V14.5469H34.6556V23ZM33.0931 12.3047C33.0931 12.0703 33.1634 11.8724 33.3041 11.7109C33.4499 11.5495 33.6634 11.4688 33.9447 11.4688C34.2259 11.4688 34.4395 11.5495 34.5853 11.7109C34.7311 11.8724 34.8041 12.0703 34.8041 12.3047C34.8041 12.5391 34.7311 12.7344 34.5853 12.8906C34.4395 13.0469 34.2259 13.125 33.9447 13.125C33.6634 13.125 33.4499 13.0469 33.3041 12.8906C33.1634 12.7344 33.0931 12.5391 33.0931 12.3047ZM38.4153 14.5469L38.4544 15.4844C39.0742 14.7552 39.9101 14.3906 40.9622 14.3906C42.1445 14.3906 42.9492 14.8438 43.3762 15.75C43.6575 15.3438 44.0221 15.0156 44.47 14.7656C44.9231 14.5156 45.457 14.3906 46.0716 14.3906C47.9257 14.3906 48.8684 15.3724 48.8997 17.3359V23H47.4544V17.4219C47.4544 16.8177 47.3164 16.3672 47.0403 16.0703C46.7643 15.7682 46.3007 15.6172 45.6497 15.6172C45.1132 15.6172 44.6679 15.7786 44.3137 16.1016C43.9596 16.4193 43.7539 16.849 43.6966 17.3906V23H42.2434V17.4609C42.2434 16.2318 41.6419 15.6172 40.4387 15.6172C39.4908 15.6172 38.8424 16.0208 38.4934 16.8281V23H37.0481V14.5469H38.4153ZM56.3859 23C56.3026 22.8333 56.2349 22.5365 56.1828 22.1094C55.5109 22.8073 54.7089 23.1562 53.7766 23.1562C52.9432 23.1562 52.2583 22.9219 51.7219 22.4531C51.1906 21.9792 50.925 21.3802 50.925 20.6562C50.925 19.776 51.2583 19.0938 51.925 18.6094C52.5969 18.1198 53.5396 17.875 54.7531 17.875H56.1594V17.2109C56.1594 16.7057 56.0083 16.3047 55.7062 16.0078C55.4042 15.7057 54.9589 15.5547 54.3703 15.5547C53.8547 15.5547 53.4224 15.6849 53.0734 15.9453C52.7245 16.2057 52.55 16.5208 52.55 16.8906H51.0969C51.0969 16.4688 51.2453 16.0625 51.5422 15.6719C51.8443 15.276 52.2505 14.9635 52.7609 14.7344C53.2766 14.5052 53.8417 14.3906 54.4562 14.3906C55.4302 14.3906 56.1932 14.6354 56.7453 15.125C57.2974 15.6094 57.5839 16.2786 57.6047 17.1328V21.0234C57.6047 21.7995 57.7036 22.4167 57.9016 22.875V23H56.3859ZM53.9875 21.8984C54.4406 21.8984 54.8703 21.7812 55.2766 21.5469C55.6828 21.3125 55.9771 21.0078 56.1594 20.6328V18.8984H55.0266C53.2557 18.8984 52.3703 19.4167 52.3703 20.4531C52.3703 20.9062 52.5214 21.2604 52.8234 21.5156C53.1255 21.7708 53.5135 21.8984 53.9875 21.8984ZM64.0363 15.8438C63.8175 15.8073 63.5805 15.7891 63.3253 15.7891C62.3774 15.7891 61.7342 16.1927 61.3956 17V23H59.9503V14.5469H61.3566L61.38 15.5234C61.854 14.7682 62.5258 14.3906 63.3956 14.3906C63.6769 14.3906 63.8904 14.4271 64.0363 14.5V15.8438ZM68.3584 20.8828L70.3272 14.5469H71.8741L68.4756 24.3047C67.9496 25.7109 67.1136 26.4141 65.9678 26.4141L65.6944 26.3906L65.1553 26.2891V25.1172L65.5459 25.1484C66.0355 25.1484 66.4157 25.0495 66.6866 24.8516C66.9626 24.6536 67.1892 24.2917 67.3662 23.7656L67.6866 22.9062L64.6709 14.5469H66.2491L68.3584 20.8828ZM84.4559 18.8672C84.4559 20.1589 84.1591 21.1979 83.5653 21.9844C82.9716 22.7656 82.1747 23.1562 81.1747 23.1562C80.107 23.1562 79.2815 22.7786 78.6981 22.0234L78.6278 23H77.2997V11H78.745V15.4766C79.3283 14.7526 80.133 14.3906 81.1591 14.3906C82.1851 14.3906 82.9898 14.7786 83.5731 15.5547C84.1617 16.3307 84.4559 17.3932 84.4559 18.7422V18.8672ZM83.0106 18.7031C83.0106 17.7188 82.8205 16.9583 82.4403 16.4219C82.0601 15.8854 81.5132 15.6172 80.7997 15.6172C79.8466 15.6172 79.1617 16.0599 78.745 16.9453V20.6016C79.1877 21.487 79.8778 21.9297 80.8153 21.9297C81.508 21.9297 82.0471 21.6615 82.4325 21.125C82.8179 20.5885 83.0106 19.7812 83.0106 18.7031ZM91.5828 22.1641C91.0203 22.8255 90.1948 23.1562 89.1062 23.1562C88.2052 23.1562 87.5177 22.8958 87.0437 22.375C86.575 21.849 86.338 21.0729 86.3328 20.0469V14.5469H87.7781V20.0078C87.7781 21.2891 88.299 21.9297 89.3406 21.9297C90.4448 21.9297 91.1792 21.5182 91.5437 20.6953V14.5469H92.9891V23H91.6141L91.5828 22.1641ZM97.2331 12.5V14.5469H98.8112V15.6641H97.2331V20.9062C97.2331 21.2448 97.3034 21.5 97.4441 21.6719C97.5847 21.8385 97.8243 21.9219 98.1628 21.9219C98.3295 21.9219 98.5586 21.8906 98.8503 21.8281V23C98.4701 23.1042 98.1003 23.1562 97.7409 23.1562C97.0951 23.1562 96.6081 22.9609 96.28 22.5703C95.9519 22.1797 95.7878 21.625 95.7878 20.9062V15.6641H94.2487V14.5469H95.7878V12.5H97.2331ZM102.548 12.5V14.5469H104.126V15.6641H102.548V20.9062C102.548 21.2448 102.618 21.5 102.758 21.6719C102.899 21.8385 103.139 21.9219 103.477 21.9219C103.644 21.9219 103.873 21.8906 104.165 21.8281V23C103.784 23.1042 103.415 23.1562 103.055 23.1562C102.409 23.1562 101.923 22.9609 101.594 22.5703C101.266 22.1797 101.102 21.625 101.102 20.9062V15.6641H99.5631V14.5469H101.102V12.5H102.548ZM105.362 18.6953C105.362 17.8672 105.523 17.1224 105.846 16.4609C106.174 15.7995 106.628 15.2891 107.206 14.9297C107.789 14.5703 108.453 14.3906 109.198 14.3906C110.349 14.3906 111.279 14.7891 111.987 15.5859C112.7 16.3828 113.057 17.4427 113.057 18.7656V18.8672C113.057 19.6901 112.898 20.4297 112.581 21.0859C112.268 21.737 111.818 22.2448 111.229 22.6094C110.646 22.974 109.974 23.1562 109.213 23.1562C108.068 23.1562 107.138 22.7578 106.424 21.9609C105.716 21.1641 105.362 20.1094 105.362 18.7969V18.6953ZM106.815 18.8672C106.815 19.8047 107.031 20.5573 107.463 21.125C107.901 21.6927 108.484 21.9766 109.213 21.9766C109.948 21.9766 110.531 21.6901 110.963 21.1172C111.396 20.5391 111.612 19.7318 111.612 18.6953C111.612 17.7682 111.391 17.0182 110.948 16.4453C110.51 15.8672 109.927 15.5781 109.198 15.5781C108.484 15.5781 107.909 15.862 107.471 16.4297C107.034 16.9974 106.815 17.8099 106.815 18.8672ZM116.317 14.5469L116.364 15.6094C117.01 14.7969 117.853 14.3906 118.895 14.3906C120.681 14.3906 121.583 15.3984 121.598 17.4141V23H120.153V17.4062C120.148 16.7969 120.007 16.3464 119.731 16.0547C119.46 15.763 119.036 15.6172 118.458 15.6172C117.989 15.6172 117.577 15.7422 117.223 15.9922C116.869 16.2422 116.593 16.5703 116.395 16.9766V23H114.95V14.5469H116.317Z" fill="#080C11"/>
</svg>
