<svg width="139" height="28" viewBox="0 0 139 28" fill="none" xmlns="http://www.w3.org/2000/svg">
<rect width="139" height="28" rx="3" fill="#4DACFF"/>
<path d="M19.1362 14.5469V19H17.6362V7.625H21.8316C23.0764 7.625 24.0503 7.94271 24.7534 8.57812C25.4618 9.21354 25.8159 10.0547 25.8159 11.1016C25.8159 12.2057 25.4696 13.0573 24.7769 13.6562C24.0894 14.25 23.1024 14.5469 21.8159 14.5469H19.1362ZM19.1362 13.3203H21.8316C22.6336 13.3203 23.2482 13.1328 23.6753 12.7578C24.1024 12.3776 24.3159 11.8307 24.3159 11.1172C24.3159 10.4401 24.1024 9.89844 23.6753 9.49219C23.2482 9.08594 22.6623 8.875 21.9175 8.85938H19.1362V13.3203ZM31.6694 11.8438C31.4506 11.8073 31.2136 11.7891 30.9584 11.7891C30.0105 11.7891 29.3673 12.1927 29.0287 13V19H27.5834V10.5469H28.9897L29.0131 11.5234C29.4871 10.7682 30.159 10.3906 31.0287 10.3906C31.31 10.3906 31.5235 10.4271 31.6694 10.5V11.8438ZM34.6556 19H33.2103V10.5469H34.6556V19ZM33.0931 8.30469C33.0931 8.07031 33.1634 7.8724 33.3041 7.71094C33.4499 7.54948 33.6634 7.46875 33.9447 7.46875C34.2259 7.46875 34.4395 7.54948 34.5853 7.71094C34.7311 7.8724 34.8041 8.07031 34.8041 8.30469C34.8041 8.53906 34.7311 8.73438 34.5853 8.89062C34.4395 9.04688 34.2259 9.125 33.9447 9.125C33.6634 9.125 33.4499 9.04688 33.3041 8.89062C33.1634 8.73438 33.0931 8.53906 33.0931 8.30469ZM38.4153 10.5469L38.4544 11.4844C39.0742 10.7552 39.9101 10.3906 40.9622 10.3906C42.1445 10.3906 42.9492 10.8438 43.3762 11.75C43.6575 11.3438 44.0221 11.0156 44.47 10.7656C44.9231 10.5156 45.457 10.3906 46.0716 10.3906C47.9257 10.3906 48.8684 11.3724 48.8997 13.3359V19H47.4544V13.4219C47.4544 12.8177 47.3164 12.3672 47.0403 12.0703C46.7643 11.7682 46.3007 11.6172 45.6497 11.6172C45.1132 11.6172 44.6679 11.7786 44.3137 12.1016C43.9596 12.4193 43.7539 12.849 43.6966 13.3906V19H42.2434V13.4609C42.2434 12.2318 41.6419 11.6172 40.4387 11.6172C39.4908 11.6172 38.8424 12.0208 38.4934 12.8281V19H37.0481V10.5469H38.4153ZM56.3859 19C56.3026 18.8333 56.2349 18.5365 56.1828 18.1094C55.5109 18.8073 54.7089 19.1562 53.7766 19.1562C52.9432 19.1562 52.2583 18.9219 51.7219 18.4531C51.1906 17.9792 50.925 17.3802 50.925 16.6562C50.925 15.776 51.2583 15.0938 51.925 14.6094C52.5969 14.1198 53.5396 13.875 54.7531 13.875H56.1594V13.2109C56.1594 12.7057 56.0083 12.3047 55.7062 12.0078C55.4042 11.7057 54.9589 11.5547 54.3703 11.5547C53.8547 11.5547 53.4224 11.6849 53.0734 11.9453C52.7245 12.2057 52.55 12.5208 52.55 12.8906H51.0969C51.0969 12.4688 51.2453 12.0625 51.5422 11.6719C51.8443 11.276 52.2505 10.9635 52.7609 10.7344C53.2766 10.5052 53.8417 10.3906 54.4562 10.3906C55.4302 10.3906 56.1932 10.6354 56.7453 11.125C57.2974 11.6094 57.5839 12.2786 57.6047 13.1328V17.0234C57.6047 17.7995 57.7036 18.4167 57.9016 18.875V19H56.3859ZM53.9875 17.8984C54.4406 17.8984 54.8703 17.7812 55.2766 17.5469C55.6828 17.3125 55.9771 17.0078 56.1594 16.6328V14.8984H55.0266C53.2557 14.8984 52.3703 15.4167 52.3703 16.4531C52.3703 16.9062 52.5214 17.2604 52.8234 17.5156C53.1255 17.7708 53.5135 17.8984 53.9875 17.8984ZM64.0363 11.8438C63.8175 11.8073 63.5805 11.7891 63.3253 11.7891C62.3774 11.7891 61.7342 12.1927 61.3956 13V19H59.9503V10.5469H61.3566L61.38 11.5234C61.854 10.7682 62.5258 10.3906 63.3956 10.3906C63.6769 10.3906 63.8904 10.4271 64.0363 10.5V11.8438ZM68.3584 16.8828L70.3272 10.5469H71.8741L68.4756 20.3047C67.9496 21.7109 67.1136 22.4141 65.9678 22.4141L65.6944 22.3906L65.1553 22.2891V21.1172L65.5459 21.1484C66.0355 21.1484 66.4157 21.0495 66.6866 20.8516C66.9626 20.6536 67.1892 20.2917 67.3662 19.7656L67.6866 18.9062L64.6709 10.5469H66.2491L68.3584 16.8828ZM84.4559 14.8672C84.4559 16.1589 84.1591 17.1979 83.5653 17.9844C82.9716 18.7656 82.1747 19.1562 81.1747 19.1562C80.107 19.1562 79.2815 18.7786 78.6981 18.0234L78.6278 19H77.2997V7H78.745V11.4766C79.3283 10.7526 80.133 10.3906 81.1591 10.3906C82.1851 10.3906 82.9898 10.7786 83.5731 11.5547C84.1617 12.3307 84.4559 13.3932 84.4559 14.7422V14.8672ZM83.0106 14.7031C83.0106 13.7188 82.8205 12.9583 82.4403 12.4219C82.0601 11.8854 81.5132 11.6172 80.7997 11.6172C79.8466 11.6172 79.1617 12.0599 78.745 12.9453V16.6016C79.1877 17.487 79.8778 17.9297 80.8153 17.9297C81.508 17.9297 82.0471 17.6615 82.4325 17.125C82.8179 16.5885 83.0106 15.7812 83.0106 14.7031ZM91.5828 18.1641C91.0203 18.8255 90.1948 19.1562 89.1062 19.1562C88.2052 19.1562 87.5177 18.8958 87.0437 18.375C86.575 17.849 86.338 17.0729 86.3328 16.0469V10.5469H87.7781V16.0078C87.7781 17.2891 88.299 17.9297 89.3406 17.9297C90.4448 17.9297 91.1792 17.5182 91.5437 16.6953V10.5469H92.9891V19H91.6141L91.5828 18.1641ZM97.2331 8.5V10.5469H98.8112V11.6641H97.2331V16.9062C97.2331 17.2448 97.3034 17.5 97.4441 17.6719C97.5847 17.8385 97.8243 17.9219 98.1628 17.9219C98.3295 17.9219 98.5586 17.8906 98.8503 17.8281V19C98.4701 19.1042 98.1003 19.1562 97.7409 19.1562C97.0951 19.1562 96.6081 18.9609 96.28 18.5703C95.9519 18.1797 95.7878 17.625 95.7878 16.9062V11.6641H94.2487V10.5469H95.7878V8.5H97.2331ZM102.548 8.5V10.5469H104.126V11.6641H102.548V16.9062C102.548 17.2448 102.618 17.5 102.758 17.6719C102.899 17.8385 103.139 17.9219 103.477 17.9219C103.644 17.9219 103.873 17.8906 104.165 17.8281V19C103.784 19.1042 103.415 19.1562 103.055 19.1562C102.409 19.1562 101.923 18.9609 101.594 18.5703C101.266 18.1797 101.102 17.625 101.102 16.9062V11.6641H99.5631V10.5469H101.102V8.5H102.548ZM105.362 14.6953C105.362 13.8672 105.523 13.1224 105.846 12.4609C106.174 11.7995 106.628 11.2891 107.206 10.9297C107.789 10.5703 108.453 10.3906 109.198 10.3906C110.349 10.3906 111.279 10.7891 111.987 11.5859C112.7 12.3828 113.057 13.4427 113.057 14.7656V14.8672C113.057 15.6901 112.898 16.4297 112.581 17.0859C112.268 17.737 111.818 18.2448 111.229 18.6094C110.646 18.974 109.974 19.1562 109.213 19.1562C108.068 19.1562 107.138 18.7578 106.424 17.9609C105.716 17.1641 105.362 16.1094 105.362 14.7969V14.6953ZM106.815 14.8672C106.815 15.8047 107.031 16.5573 107.463 17.125C107.901 17.6927 108.484 17.9766 109.213 17.9766C109.948 17.9766 110.531 17.6901 110.963 17.1172C111.396 16.5391 111.612 15.7318 111.612 14.6953C111.612 13.7682 111.391 13.0182 110.948 12.4453C110.51 11.8672 109.927 11.5781 109.198 11.5781C108.484 11.5781 107.909 11.862 107.471 12.4297C107.034 12.9974 106.815 13.8099 106.815 14.8672ZM116.317 10.5469L116.364 11.6094C117.01 10.7969 117.853 10.3906 118.895 10.3906C120.681 10.3906 121.583 11.3984 121.598 13.4141V19H120.153V13.4062C120.148 12.7969 120.007 12.3464 119.731 12.0547C119.46 11.763 119.036 11.6172 118.458 11.6172C117.989 11.6172 117.577 11.7422 117.223 11.9922C116.869 12.2422 116.593 12.5703 116.395 12.9766V19H114.95V10.5469H116.317Z" fill="#080C11"/>
</svg>
